<ttFont>
<head>
    <!-- Most of this table will be recalculated by the compiler -->
    <tableVersion value="1.0"/>
    <fontRevision value="2.004"/>
    <checkSumAdjustment value="0x6f285277"/>
    <magicNumber value="0x5f0f3cf5"/>
    <flags value="00000000 00000011"/>
    <unitsPerEm value="1000"/>
    <created value="Thu Oct  8 10:02:22 2009"/>
    <modified value="Thu Oct  8 10:02:22 2009"/>
    <xMin value="-334"/>
    <yMin value="-321"/>
    <xMax value="566"/>
    <yMax value="991"/>
    <macStyle value="00000000 00000010"/>
    <lowestRecPPEM value="3"/>
    <fontDirectionHint value="2"/>
    <indexToLocFormat value="0"/>
    <glyphDataFormat value="0"/>
  </head>
          <CharString index="0">
            hintmask 01100000
            348 -30 callsubr
            -18 -14 2 7 -10 hvcurveto
            39 234 rlineto
            76 13 -30 76 -91 hhcurveto
            -28 -69 0 -62 -11 hvcurveto
            -23 -4 14 -10 13 hhcurveto
            4 23 0 38 7 hvcurveto
            1 4 1 9 17 2 rrcurveto
            1 8 10 -78 callsubr
            16 24 0 -26 18 hvcurveto
            22 -29 -6 -35 -7 -43 -43 -2 -41 -4 -47 -21 -36 -16 -52 -33 -11 -66 rrcurveto
            hintmask 10000000
            -70 -12 38 -55 62 hhcurveto
            23 44 5 37 43 hvcurveto
            hintmask 01000000
            -34 8 35 -2 27 hhcurveto
            14 73 callgsubr
            -97 106 rmoveto
            -4 -26 -5 -28 -32 -20 rrcurveto
            hintmask 10000000
            -28 -18 -35 0 0 vvcurveto
            -45 -21 40 45 8 hvcurveto
            63 10 81 43 88 hhcurveto
            return
          </CharString>
          <CharString index="1">
            -8 -20 0 -20 -3 hvcurveto
            -20 -4 20 -78 callsubr
            return
          </CharString>
          <CharString index="2">
            347 -78 callgsubr
            -30 hlineto
            75 callgsubr
            -6 5 -20 hhcurveto
            -47 hlineto
            -63 callsubr
            8 hhcurveto
            30 hlineto
            176 callsubr
            hintmask 10100000
            -90 -15 -51 -27 -33 hhcurveto
            -56 7 44 35 6 hvcurveto
            47 280 rlineto
            27 4 -7 5 -74 callsubr
            -46 -277 rlineto
            -90 -15 41 -24 51 hhcurveto
            75 callsubr
            hintmask 01000000
            -38 -6 18 0 10 -6 callgsubr
            return
          </CharString>
          <CharString index="3">
            -67 callgsubr
            -88 -58 -7 -5 -13 -93 callsubr
          </CharString>
          <CharString index="4">
            -19 -6 -15 -41 -7 hvcurveto
            -94 hlineto
            39 234 rlineto
            173 hlineto
            -10 -61 rlineto
            -15 -2 140 callgsubr
            98 callsubr
            168 callgsubr
            -254 -89 callsubr
            269 hlineto
            return
          </CharString>
          <CharString index="5">
            hintmask 11100000
            -107 callgsubr
            return
          </CharString>
          <CharString index="6">
            hlineto
            -8 -98 callsubr
            return
          </CharString>
          <CharString index="7">
            26 43 17 79 24 144 rrcurveto
            -44 9 rmoveto
            -11 -67 -14 -83 -17 -58 rrcurveto
            -53 -16 -20 -25 -65 hhcurveto
            -64 -12 25 48 1 hvcurveto
            135 callgsubr
            return
          </CharString>
          <CharString index="8">
            350 213 rmoveto
            125 20 -49 97 -73 hhcurveto
            -74 -82 -97 -125 -20 hvcurveto
            -126 -21 50 -93 73 hhcurveto
            73 82 93 126 21 hvcurveto
            -44 7 rmoveto
            -103 -17 -55 -83 -53 hhcurveto
            -53 -28 84 102 17 hvcurveto
            101 17 55 73 52 hhcurveto
            51 31 -73 -101 -17 hvcurveto
            return
          </CharString>
          <CharString index="9">
            -20 -97 callgsubr
            return
          </CharString>
          <CharString index="10">
            rmoveto
            8 2 -3 9 -11 hhcurveto
            -5 -4 1 -4 -9 hvcurveto
            -69 -29 -59 29 rlineto
            4 -8 -5 -1 -5 hhcurveto
            -11 -5 -9 -8 -2 hvcurveto
            -5 -1 -10 7 -4 vhcurveto
            68 -40 10 -6 6 0 12 6 rlinecurve
            80 40 rlineto
            9 4 3 10 5 vvcurveto
            endchar
          </CharString>
          <CharString index="11">
            306 -78 callgsubr
            -70 hlineto
            59 353 63 callsubr
            -92 55 callgsubr
            75 148 callsubr
            -80 hlineto
            -8 -21 0 -20 193 callsubr
            133 callgsubr
            195 -81 callgsubr
            return
          </CharString>
          <CharString index="12">
            rmoveto
            -92 callsubr
            123 hmoveto
            -92 callsubr
            return
          </CharString>
          <CharString index="13">
            7 -5 9 -6 10 -35 59 rcurveline
            14 -8 256 callgsubr
            6 -9 5 -10 41 -67 rcurveline
            3 -6 return
          </CharString>
          <CharString index="14">
            -101 callgsubr
            12 86 callgsubr
            endchar
          </CharString>
          <CharString index="15">
            20 3 -13 12 111 callsubr
            -12 -20 -3 hvcurveto
            -19 -3 13 -13 13 hhcurveto
            6 callgsubr
            return
          </CharString>
          <CharString index="16">
            407 405 rmoveto
            20 3 -21 -7 callgsubr
            -77 19 callgsubr
            -130 -336 -28 336 rlineto
            21 -68 callsubr
            -77 46 callgsubr
            133 callgsubr
            19 hlineto
            37 -395 -41 -105 rlineto
            -29 -11 -31 -53 -29 hhcurveto
            -12 2 17 0 hvcurveto
            8 6 5 10 0 vvcurveto
            20 3 -12 11 -13 hhcurveto
            -15 -15 -12 -20 -4 hvcurveto
            -36 -6 20 -34 32 hhcurveto
            65 47 110 31 12 hvcurveto
            190 479 rlineto
            18 hlineto
            8 21 0 20 4 hvcurveto
            return
          </CharString>
          <CharString index="17">
            -87 callsubr
            hintmask 0000100000000000
            60 callgsubr
            hintmask 0001000000000000
            19 callsubr
            hintmask 0010010000000000
            -62 callgsubr
            hintmask 0001000000000000
            5 callsubr
            hintmask 0000100000000000
            61 callsubr
          </CharString>
          <CharString index="18">
            -84 callsubr
            -88 -531 -43 callgsubr
            return
          </CharString>
          <CharString index="19">
            436 650 rmoveto
            25 5 -3 29 -25 hhcurveto
            -18 -1 -14 -16 -4 -20 -2 -15 7 -11 8 -6 rrcurveto
            0 1 -13 -4 -7 vhcurveto
            -6 -4 -7 -7 -5 hhcurveto
            21 -22 -37 0 -34 hhcurveto
            -45 -51 0 -52 -31 hvcurveto
            -30 -50 -21 -124 -15 -92 -15 -91 -21 -124 14 -50 rrcurveto
            -52 13 51 0 45 hhcurveto
            45 52 0 52 31 hvcurveto
            30 50 21 124 15 91 14 82 18 110 -8 72 24 19 17 30 5 32 rrcurveto
            -112 -332 rmoveto
            -14 -83 -19 -116 -24 -47 rrcurveto
            -40 -20 -36 -4 -32 hhcurveto
            -32 -35 4 40 -7 hvcurveto
            -7 47 19 116 14 83 13 77 17 105 22 42 rrcurveto
            return
          </CharString>
          <CharString index="20">
            rmoveto
            12 2 -9 8 -9 hhcurveto
            -4 -5 -2 -4 -4 hvcurveto
            -8 -8 60 callsubr
            5 9 22 callgsubr
            return
          </CharString>
          <CharString index="21">
            433 182 callsubr
            -18 0 -9 hhcurveto
            42 callsubr
            9 hhcurveto
            16 hlineto
            -85 -512 -37 517 rlineto
            35 -3 -18 0 -15 hhcurveto
            -45 hlineto
            -9 -19 42 callgsubr
            -88 -531 15 callgsubr
            return
          </CharString>
          <CharString index="22">
            -56 callgsubr
            -8 -1 3 -9 11 hhcurveto
            5 3 -1 4 10 hvcurveto
            69 29 59 -29 rlineto
            -4 7 6 1 5 hhcurveto
            11 5 9 8 1 hvcurveto
            return
          </CharString>
          <CharString index="23">
            -105 callgsubr
            19 hlineto
            return
          </CharString>
          <CharString index="24">
            rmoveto
            1 7 -9 9 -7 5 -68 58 rcurveline
            7 -9 -9 6 -9 hhcurveto
            -11 -10 -10 -14 -3 hvcurveto
            -1 -9 8 -8 7 -6 79 -66 rcurveline
            -3 4 6 -3 4 hhcurveto
            14 10 12 15 3 hvcurveto
            endchar
          </CharString>
          <CharString index="25">
            -20 -3 20 -78 callsubr
            return
          </CharString>
          <CharString index="26">
            226 callgsubr
            1 -7 9 -11 hhcurveto
            -6 -13 -3 -19 return
          </CharString>
          <CharString index="27">
            47 8 -29 26 -39 hhcurveto
            -30 -36 -25 -47 -8 hvcurveto
            -12 -2 7 116 callgsubr
            return
          </CharString>
          <CharString index="28">
            412 405 23 callgsubr
            -4 20 0 8 hhcurveto
            36 hlineto
            -94 -335 -2 119 rlineto
            66 -1 -1 13 -22 hhcurveto
            -23 -5 -13 -65 -23 hvcurveto
            -42 -120 17 335 rlineto
            35 hlineto
            9 199 callsubr
            -78 15 callsubr
            14 hhcurveto
            -15 -352 rlineto
            -35 -2 10 -3 16 hhcurveto
            27 4 8 71 25 hvcurveto
            41 122 -2 -123 rlineto
            -69 3 0 -9 26 hhcurveto
            12 14 0 37 11 hvcurveto
            101 353 rlineto
            15 19 0 20 4 hvcurveto
            return
          </CharString>
          <CharString index="29">
            0 8 hhcurveto
            return
          </CharString>
          <CharString index="30">
            331 33 rmoveto
            14 86 rlineto
            15 2 0 18 -19 hhcurveto
            -19 -5 251 callsubr
            -13 -79 rlineto
            -204 hlineto
            327 528 5 9 3 3 1 7 rlinecurve
            24 4 -17 0 -12 hhcurveto
            -229 hlineto
            -20 -9 -4 -29 -5 hvcurveto
            -11 -68 -3 callgsubr
            10 61 rlineto
            192 hlineto
            -326 -528 -6 -9 -2 -3 -1 -7 rlinecurve
            -24 -4 17 0 11 hhcurveto
            242 51 callgsubr
            return
          </CharString>
          <CharString index="31">
            10 -11 hhcurveto
            -9 -11 -6 -7 -11 hvcurveto
            return
          </CharString>
          <CharString index="32">
            48 callgsubr
            -71 -105 callgsubr
            54 148 callsubr
            -54 -101 callsubr
            173 -28 callgsubr
            -74 hlineto
            24 145 rlineto
            return
          </CharString>
          <CharString index="33">
            -20 -84 callgsubr
            return
          </CharString>
          <CharString index="34">
            -95 callsubr
            endchar
          </CharString>
          <CharString index="35">
            67 callgsubr
            235 callgsubr
            56 hlineto
            12 22 0 -29 18 hvcurveto
            12 -22 -5 -29 -8 -49 -11 -67 -4 -28 7 -32 rrcurveto
            return
          </CharString>
          <CharString index="36">
            -67 callsubr
            endchar
          </CharString>
          <CharString index="37">
            hlineto
            -8 -52 callgsubr
            8 hhcurveto
            return
          </CharString>
          <CharString index="38">
            rmoveto
            17 3 -10 27 -35 hhcurveto
            -13 -33 -5 -34 -34 hvcurveto
            24 -19 -23 8 -20 hhcurveto
            -61 -63 -69 -85 -14 hvcurveto
            -3 -20 -1 -36 15 -42 -22 -36 -8 -26 -2 -11 -6 -32 9 -25 9 -21 -50 -35 -25 -51 -6 -37 rrcurveto
            -83 -14 64 -58 87 hhcurveto
            86 82 57 84 14 hvcurveto
            return
          </CharString>
          <CharString index="39">
            hlineto
            -74 callgsubr
            return
          </CharString>
          <CharString index="40">
            154 callgsubr
            15 -15 hhcurveto
            -15 -18 -15 154 callsubr
            -4 14 -15 15 hhcurveto
            71 callsubr
            return
          </CharString>
          <CharString index="41">
            238 -55 rmoveto
            75 448 rlineto
            27 4 -7 5 93 callgsubr
            18 0 10 hhcurveto
            86 hlineto
            -72 -435 -3 -18 -9 -52 -27 -39 rlinecurve
            -36 -25 -20 0 -17 hhcurveto
            -14 -16 1 4 -12 hvcurveto
            22 4 1 31 -23 hhcurveto
            -10 -19 -9 -25 -5 hvcurveto
            -64 -10 70 0 26 hhcurveto
            26 28 0 52 43 hvcurveto
            9 10 34 44 13 74 rrcurveto
            return
          </CharString>
          <CharString index="42">
            -19 0 -9 hhcurveto
            -205 244 callsubr
            204 -35 callgsubr
            return
          </CharString>
          <CharString index="43">
            -42 callsubr
            -8 hhcurveto
            return
          </CharString>
          <CharString index="44">
            -8 -64 callgsubr
            return
          </CharString>
          <CharString index="45">
            hhcurveto
            -46 -105 callgsubr
            return
          </CharString>
          <CharString index="46">
            8 20 0 20 3 hvcurveto
            -49 callgsubr
            return
          </CharString>
          <CharString index="47">
            -36 callgsubr
            20 return
          </CharString>
          <CharString index="48">
            -61 callsubr
            -15 hlineto
            85 512 36 -517 rlineto
            -35 2 18 0 16 hhcurveto
            18 11 0 33 6 hvcurveto
            89 538 rlineto
            16 117 callsubr
            return
          </CharString>
          <CharString index="49">
            80 callgsubr
            8 48 10 63 5 46 9 91 -6 36 -30 20 rrcurveto
            8 24 18 43 3 vvcurveto
            10 2 -8 9 -11 hhcurveto
            -14 -6 -16 -15 -6 hvcurveto
            -17 -46 rlineto
            2 -20 -18 0 -12 hhcurveto
            -124 -21 -25 -292 -49 hvcurveto
            -8 -48 -10 -63 -5 -46 -9 -91 5 -36 31 -20 rrcurveto
            -8 -24 -18 -43 -3 vvcurveto
            -10 -2 7 -9 11 hhcurveto
            14 7 16 15 6 hvcurveto
            17 46 rlineto
            -2 20 18 0 12 hhcurveto
            124 21 25 292 49 hvcurveto
            -55 275 rmoveto
            -203 -528 -12 16 -11 17 37 220 rlinecurve
            11 69 14 82 18 54 rrcurveto
            65 22 30 8 54 hhcurveto
            3 21 0 -3 16 hvcurveto
            17 -274 rmoveto
            -11 -69 -14 -82 -18 -54 rrcurveto
            -65 -22 -30 -8 -54 hhcurveto
            -3 -22 0 3 -16 hvcurveto
            204 528 12 -16 11 -17 -37 -220 rlinecurve
            return
          </CharString>
          <CharString index="50">
            -42 callgsubr
            -5 -9 4 hvcurveto
            -32 14 11 -12 19 hhcurveto
            return
          </CharString>
          <CharString index="51">
            hintmask 00110000
            348 -30 callsubr
            -18 -14 2 7 -10 hvcurveto
            39 234 rlineto
            76 13 -30 76 -91 hhcurveto
            -28 -69 0 -62 -11 hvcurveto
            -23 -4 14 -10 13 hhcurveto
            4 23 0 38 7 hvcurveto
            1 4 1 9 17 2 rrcurveto
            1 8 10 -78 callsubr
            16 24 0 -26 18 hvcurveto
            22 -29 -6 -35 -7 -43 -43 -2 -41 -4 -47 -21 -36 -16 -52 -33 -11 -66 rrcurveto
            return
          </CharString>
          <CharString index="52">
            rmoveto
            12 3 -4 184 callgsubr
            -12 -25 -15 -2 hvcurveto
            -28 -211 rlineto
            -20 -3 3 -13 15 hhcurveto
            15 7 193 callgsubr
            return
          </CharString>
          <CharString index="53">
            323 117 rmoveto
            17 2 -1 17 -19 hhcurveto
            -18 -7 -17 -18 -3 hvcurveto
            -68 -12 -41 -14 -17 hhcurveto
            -55 10 59 27 4 hvcurveto
            44 265 rlineto
            114 hlineto
            8 -53 callgsubr
            -8 hhcurveto
            return
          </CharString>
          <CharString index="54">
            -7 -45 rlineto
            -205 hlineto
            300 345 4 5 3 5 1 6 rlinecurve
            24 4 -17 0 -11 hhcurveto
            -234 hlineto
            -20 -9 -4 -28 -4 hvcurveto
            -7 -42 rlineto
            -15 -3 140 callgsubr
            5 34 rlineto
            192 hlineto
            -300 -345 -4 -5 -3 -4 -1 -7 rlinecurve
            -24 -4 17 0 12 hhcurveto
            247 hlineto
            34 callgsubr
            return
          </CharString>
          <CharString index="55">
            -27 7 16 -15 21 hhcurveto
            44 27 64 34 5 hvcurveto
            -44 362 rmoveto
            -53 -9 -40 -69 -68 hhcurveto
            -52 hlineto
            41 245 rlineto
            52 hlineto
            68 17 -69 -54 -9 hvcurveto
            return
          </CharString>
          <CharString index="56">
            347 22 rmoveto
            9 -7 9 -7 vhcurveto
            -39 hlineto
            57 344 29 10 29 28 8 43 rlinecurve
            4 24 -5 28 -22 1 rrcurveto
            -1 hlineto
            -15 -1 -16 -15 -4 -18 -1 -13 3 -12 6 -8 rrcurveto
            0 3 -13 -6 -7 vhcurveto
            -7 -6 -9 -7 callgsubr
            -66 181 callsubr
            return
          </CharString>
          <CharString index="57">
            -89 callgsubr
            endchar
          </CharString>
          <CharString index="58">
            33 42 23 54 9 55 rrcurveto
            -42 9 rmoveto
            -8 -48 -16 -48 -27 -39 rrcurveto
            -30 -21 -27 -22 -27 hhcurveto
            -26 -21 22 30 -11 hvcurveto
            -13 39 0 48 8 48 7 45 16 45 26 35 rrcurveto
            29 21 28 18 25 hhcurveto
            26 21 -18 -29 12 hvcurveto
            14 -35 0 -45 -7 -45 rrcurveto
            return
          </CharString>
          <CharString index="59">
            -20 -7 callgsubr
            return
          </CharString>
          <CharString index="60">
            275 callsubr
            -12 hvcurveto
            -55 -59 -10 -10 -7 185 callsubr
            8 9 1 6 rrcurveto
            return
          </CharString>
          <CharString index="61">
            hlineto
            -61 callsubr
            return
          </CharString>
          <CharString index="62">
            346 -30 callsubr
            -19 hlineto
            -74 215 114 130 rlineto
            21 hlineto
            9 19 39 callsubr
            -102 -105 callgsubr
            37 hlineto
            -157 -179 62 372 45 callsubr
            -43 -105 callgsubr
            30 165 callgsubr
            -30 -101 callsubr
            102 55 callsubr
            -32 hlineto
            17 106 69 77 63 -183 rlineto
            -30 87 callsubr
            20 0 9 hhcurveto
            78 -12 callgsubr
            return
          </CharString>
          <CharString index="63">
            398 255 rmoveto
            143 23 -63 118 -97 hhcurveto
            -97 -103 -118 -143 -23 hvcurveto
            -142 -24 63 -117 97 hhcurveto
            97 103 117 142 24 hvcurveto
            -25 hmoveto
            -128 -22 -85 -108 -88 hhcurveto
            -88 -49 108 128 22 hvcurveto
            130 21 85 108 88 hhcurveto
            88 49 -108 -130 -21 hvcurveto
            return
          </CharString>
          <CharString index="64">
            -8 callgsubr
            -34 hlineto
            -9 -19 -1 callgsubr
            113 -28 callgsubr
            -35 216 callgsubr
            95 hlineto
            return
          </CharString>
          <CharString index="65">
            -27 callgsubr
            -20 0 return
          </CharString>
          <CharString index="66">
            441 182 callsubr
            -21 0 -7 hhcurveto
            -66 hlineto
            -8 -20 -54 callgsubr
            18 hhcurveto
            -127 -272 -37 272 rlineto
            17 20 0 20 4 hvcurveto
            return
          </CharString>
          <CharString index="67">
            77 -39 callsubr
            return
          </CharString>
          <CharString index="68">
            -46 callsubr
            -16 hlineto
            return
          </CharString>
          <CharString index="69">
            20 rmoveto
            20 4 return
          </CharString>
          <CharString index="70">
            rmoveto
            21 3 -19 0 -9 hhcurveto
            -205 hlineto
            -8 -19 0 -20 -3 hvcurveto
            -21 -3 26 callsubr
          </CharString>
          <CharString index="71">
            4 -7 hhcurveto
            -17 -5 -21 -6 -2 hvcurveto
            return
          </CharString>
          <CharString index="72">
            108 callsubr
            -220 191 callgsubr
            -23 -4 hvcurveto
            -24 -4 22 0 9 hhcurveto
            220 149 callsubr
            4 hvcurveto
            return
          </CharString>
          <CharString index="73">
            0 6 1 7 4 vhcurveto
            -13 -46 -16 -29 -40 -19 return
          </CharString>
          <CharString index="74">
            34 31 -40 -104 -9 hvcurveto
            -24 -2 13 0 7 hhcurveto
            19 6 12 17 3 hvcurveto
            25 150 161 callsubr
            -12 -6 -11 -5 -4 hvcurveto
            return
          </CharString>
          <CharString index="75">
            459 652 rmoveto
            23 4 -5 29 -22 hhcurveto
            -1 hlineto
            -16 -1 -16 -16 -4 -20 -2 -13 5 -11 7 -6 rrcurveto
            0 -3 -26 -20 vhcurveto
            -57 hlineto
            -9 -10 -10 -11 -2 hvcurveto
            -9 7 -10 7 vhcurveto
            30 hlineto
            return
          </CharString>
          <CharString index="76">
            rmoveto
            -80 callsubr
            hintmask 0100000010000000
            52 callsubr
            hintmask 0000000101000000
            -37 callgsubr
            hintmask 0000100000000000
            51 callsubr
            hintmask 0001000000000000
            -4 -19 rlineto
            hintmask 1000010000000000
            79 callsubr
            hintmask 0001000000000000
            76 callgsubr
            hintmask 0000100010000000
            4 8 callsubr
            hintmask 0000000001000000
            8 callgsubr
          </CharString>
          <CharString index="77">
            20 -16 callsubr
            return
          </CharString>
          <CharString index="78">
            245 -26 callsubr
            return
          </CharString>
          <CharString index="79">
            -30 callgsubr
            76 hlineto
            9 19 -9 callgsubr
            -9 hhcurveto
            return
          </CharString>
          <CharString index="80">
            275 callsubr
            -12 hvcurveto
            -55 -59 -10 -10 -7 -9 -2 -7 rlinecurve
            -2 132 callsubr
            3 -1 11 2 5 6 63 67 rcurveline
            9 10 8 9 1 6 rrcurveto
            return
          </CharString>
          <CharString index="81">
            563 -89 callgsubr
            return
          </CharString>
          <CharString index="82">
            10 callgsubr
            38 44 17 hhcurveto
            6 3 -6 -8 112 callsubr
            7 5 7 4 vvcurveto
            endchar
          </CharString>
          <CharString index="83">
            -8 callgsubr
            -86 -101 callsubr
            217 -81 callgsubr
            return
          </CharString>
          <CharString index="84">
            55 21 -12 -55 1 hvcurveto
            -51 -15 -85 -11 -66 vhcurveto
            return
          </CharString>
          <CharString index="85">
            15 18 14 22 4 hvcurveto
            return
          </CharString>
          <CharString index="86">
            -16 -95 rlineto
            -60 46 callgsubr
            20 -78 callsubr
            61 hlineto
            -45 -270 rlineto
            -91 -15 42 -30 48 hhcurveto
            36 75 23 100 17 hvcurveto
            return
          </CharString>
          <CharString index="87">
            125 callsubr
            85 -21 29 -20 110 -20 101 callgsubr
            hintmask 0101000000010000
            -32 callsubr
            hintmask 1000010001100000
            9 callsubr
            hintmask 0100000100000000
            61 370 rlineto
            hintmask 0100000010000000
            153 callsubr
            hintmask 0100001001000000
            36 callgsubr
            hintmask 1100010010101000
            -16 callgsubr
            return
          </CharString>
          <CharString index="88">
            411 394 -69 callsubr
            return
          </CharString>
          <CharString index="89">
            22 3 -13 15 -15 hhcurveto
            return
          </CharString>
          <CharString index="90">
            18 callsubr
            12 callgsubr
            return
          </CharString>
          <CharString index="91">
            rmoveto
            -49 callgsubr
            return
          </CharString>
          <CharString index="92">
            27 5 -7 6 -74 callsubr
            return
          </CharString>
          <CharString index="93">
            -9 -1 -7 rlinecurve
            return
          </CharString>
          <CharString index="94">
            0 169 callgsubr
            hstemhm
            46 45 -28 45 -17 45 143 45 -19 45 0 45 hintmask 11100101
            338 33 rmoveto
            3 21 272 callsubr
            -26 -4 hvcurveto
            -46 hlineto
            17 65 21 48 31 65 37 77 25 56 9 58 rrcurveto
            125 21 -58 89 -79 hhcurveto
            -79 -88 -90 -124 -21 hvcurveto
            -10 -63 10 -73 8 -63 rrcurveto
            hintmask 10010000
            8 -50 7 -52 -6 -68 rrcurveto
            -45 hlineto
            26 4 202 callsubr
            -8 -21 -12 -2 hvcurveto
            -3 -21 rlineto
            hintmask 10100000
            -29 -5 8 -4 20 hhcurveto
            68 hlineto
            11 16 0 26 4 hvcurveto
            11 62 -9 72 -10 70 rrcurveto
            hintmask 11001001
            -6 54 -5 64 10 61 rrcurveto
            99 17 59 75 60 hhcurveto
            59 36 -75 -99 -17 hvcurveto
            -10 -61 -26 -63 -25 -55 -32 -69 -34 -71 -11 -64 rrcurveto
            -26 -4 17 0 12 hhcurveto
            hintmask 10000010
            68 51 callgsubr
            endchar
          </CharString>
          <CharString index="95">
            -56 callgsubr
            hintmask 0000100000000000
            -8 -1 3 -9 11 hhcurveto
            hintmask 0001000000100000
            5 3 -1 4 10 hvcurveto
            69 29 59 -29 rlineto
            hintmask 0000100000100000
            -4 7 6 1 5 hhcurveto
            11 5 9 8 1 hvcurveto
            72 210 rmoveto
            hintmask 0000010100010000
            31 callgsubr
            hintmask 0000010000000100
            73 callsubr
            hintmask 0000001001000000
            114 callsubr
            hintmask 0000000010000000
            7 11 5 11 2 hvcurveto
            hintmask 0000000001000100
            3 194 callgsubr
          </CharString>
          <CharString index="96">
            hstemhm
            hintmask 11100000
            -103 callgsubr
            hintmask 00010000
            return
          </CharString>
          <CharString index="97">
            rlineto
            -16 -101 callsubr
            76 23 callsubr
            return
          </CharString>
          <CharString index="98">
            20 2 callsubr
            return
          </CharString>
          <CharString index="99">
            hvcurveto
            -20 -3 126 callgsubr
            return
          </CharString>
          <CharString index="100">
            -6 40 51 37 76 175 callsubr
            hstemhm
            201 38 82 38 -16 38 hintmask 01000010
            359 102 rmoveto
            14 2 -10 6 -8 hhcurveto
            hintmask 10101100
            -13 -7 -15 -8 -2 hvcurveto
            -59 -20 -18 -6 -7 hhcurveto
            -25 -23 49 115 11 hvcurveto
            108 hlineto
            hintmask 11011010
            21 8 7 27 5 hvcurveto
            137 23 -27 66 -42 hhcurveto
            -30 -33 -32 -57 -27 hvcurveto
            43 -8 -19 46 -38 hhcurveto
            -54 -61 -96 -125 -21 hvcurveto
            -128 -22 32 -92 52 hhcurveto
            38 36 46 45 21 hvcurveto
            -31 6 17 -60 43 hhcurveto
            hintmask 10110100
            54 35 91 17 3 hvcurveto
            -17 133 rmoveto
            -97 hlineto
            96 22 36 63 25 hhcurveto
            24 5 -64 -95 -15 hvcurveto
            -137 -15 rmoveto
            -109 -18 -44 -77 -30 hhcurveto
            -32 -16 81 105 18 hvcurveto
            108 18 43 66 29 hhcurveto
            31 18 -69 -105 -17 hvcurveto
            endchar
          </CharString>
          <CharString index="101">
            174 callsubr
            50 38 -38 39 48 39 -38 38 100 38 hintmask 11001010
            346 -38 callsubr
            -20 0 -16 hhcurveto
            118 callgsubr
            16 199 callsubr
            -37 hlineto
            -27 -12 -12 -27 -11 hvcurveto
            -108 -292 -11 307 rlineto
            24 -4 -20 0 -12 hhcurveto
            -37 hlineto
            -8 -20 0 -20 -3 hvcurveto
            hintmask 11100100
            -20 -4 19 0 17 hhcurveto
            -88 -531 113 callgsubr
            hintmask 10010110
            20 4 -20 0 -15 hhcurveto
            87 521 10 -314 rlineto
            -8 4 -28 20 8 16 8 18 9 vhcurveto
            119 322 -86 -519 113 callgsubr
            endchar
          </CharString>
          <CharString index="102">
            347 -78 callgsubr
            -30 hlineto
            89 538 45 callsubr
            -47 hlineto
            -63 callsubr
            8 hhcurveto
            30 hlineto
            -32 -192 rlineto
            17 -9 -23 35 -43 hhcurveto
            -72 -82 -93 -126 -21 hvcurveto
            return
          </CharString>
          <CharString index="103">
            114 -21 425 -20 hstem
            173 41 23 41 vstem
            343 210 rmoveto
            1 8 -6 6 -3 4 -15 16 -33 30 -37 31 114 80 rcurveline
            5 4 5 5 1 7 rrcurveto
            16 3 -13 6 -8 hhcurveto
            -3 -8 -5 -3 -5 hvcurveto
            -91 -72 28 157 rlineto
            11 203 callgsubr
            -9 -12 -5 -16 -3 hvcurveto
            -23 -154 -67 72 rlineto
            3 -3 -6 5 -4 hhcurveto
            -8 -14 -6 -16 -3 hvcurveto
            -1 -7 3 -6 3 -4 87 -78 rcurveline
            -113 -80 -6 -4 -4 -5 -1 -7 rlinecurve
            -16 -3 12 -6 8 hhcurveto
            4 8 5 3 5 hvcurveto
            90 72 -28 -154 rlineto
            -15 -2 12 -6 8 hhcurveto
            9 12 7 14 2 hvcurveto
            24 154 73 -78 rlineto
            2 -2 4 0 0 vvcurveto
            8 15 6 16 3 hvcurveto
            endchar
          </CharString>
          <CharString index="104">
            3 callgsubr
            hstem
            338 20 rmoveto
            20 4 133 callsubr
            -14 hlineto
            -56 285 125 246 rlineto
            13 -68 callsubr
            -66 hlineto
            -8 -20 0 -20 -3 hvcurveto
            -20 -4 20 0 17 hhcurveto
            -89 -179 -34 179 rlineto
            17 -53 callgsubr
            -8 hhcurveto
            -67 hlineto
            -63 callsubr
            8 hhcurveto
            14 hlineto
            48 -245 -144 -286 rlineto
            -14 -70 callsubr
            67 hlineto
            8 20 -9 callgsubr
            -19 hhcurveto
            110 226 42 -226 rlineto
            -17 -98 callsubr
            66 23 callsubr
            endchar
          </CharString>
          <CharString index="105">
            128 21 70 78 62 hhcurveto
            11 hlineto
            -39 -4 19 -3 5 hhcurveto
            13 15 12 19 3 hvcurveto
            return
          </CharString>
          <CharString index="106">
            211 6 callsubr
          </CharString>
          <CharString index="107">
            -74 -13 -29 callgsubr
            13 hvcurveto
            return
          </CharString>
          <CharString index="108">
            -12 40 280 46 229 40 hstemhm
            53 45 15 45 31 45 -8 45 -37 45 29 45 -5 45 hintmask 0000001001000000
            353 169 rmoveto
            9 54 -8 66 -83 42 81 33 32 49 9 55 rrcurveto
            hintmask 0010100100000000
            82 14 -49 73 -79 hhcurveto
            -79 -73 -73 -82 -14 hvcurveto
            hintmask 1111110010000000
            -9 -57 18 -48 67 -32 -97 -42 -30 -65 -9 -55 rrcurveto
            -98 -16 53 -83 83 hhcurveto
            83 81 82 99 16 hvcurveto
            -5 298 rmoveto
            -59 -10 -46 -54 -58 hhcurveto
            -59 -27 54 59 10 hvcurveto
            60 10 47 56 57 hhcurveto
            hintmask 1101001001000000
            57 29 -56 -60 -10 hvcurveto
            -40 -297 rmoveto
            -76 -12 -54 -66 -62 hhcurveto
            -63 -31 69 72 12 hvcurveto
            77 13 54 62 61 hhcurveto
            hintmask 0000000010000000
            62 32 -66 -72 -12 hvcurveto
            endchar
          </CharString>
          <CharString index="109">
            3 -48 callsubr
            return
          </CharString>
          <CharString index="110">
            rmoveto
            74 13 -77 0 -43 hhcurveto
            -43 -77 0 -74 -13 hvcurveto
            -18 -3 13 -4 7 hhcurveto
            17 5 259 callsubr
            25 172 callsubr
            -1 7 -9 11 hhcurveto
            6 13 3 19 3 hvcurveto
            endchar
          </CharString>
          <CharString index="111">
            -81 callsubr
            -4 hvcurveto
            return
          </CharString>
          <CharString index="112">
            24 27 27 36 37 hvcurveto
            return
          </CharString>
          <CharString index="113">
            -55 callsubr
            endchar
          </CharString>
          <CharString index="114">
            211 callsubr
            4 -7 hhcurveto
            -17 -6 -21 -6 -2 hvcurveto
            -22 -5 159 callgsubr
            -6 9 -11 -6 -14 -3 -19 -3 vhcurveto
            128 callsubr
          </CharString>
          <CharString index="115">
            19 3 65 callgsubr
            return
          </CharString>
          <CharString index="116">
            -61 -370 -8 -48 -16 -45 -24 -35 rlinecurve
            -28 -19 -24 -17 -21 hhcurveto
            -21 -17 17 28 -11 hvcurveto
            -13 35 0 45 8 48 rrcurveto
            return
          </CharString>
          <CharString index="117">
            378 300 rmoveto
            161 27 -35 150 -91 hhcurveto
            -139 -105 callgsubr
            return
          </CharString>
          <CharString index="118">
            300 -78 callgsubr
            -73 hlineto
            -95 callgsubr
            85 hlineto
            -45 -45 -24 -38 -6 -38 rrcurveto
            -42 -7 19 -47 42 hhcurveto
            26 31 27 35 23 hvcurveto
            3 4 -1 10 -3 4 -5 5 -16 -4 -6 -6 rrcurveto
            -17 -9 139 callgsubr
            9 51 37 46 33 26 rrcurveto
            61 -81 callgsubr
            return
          </CharString>
          <CharString index="119">
            228 callgsubr
            -17 34 -22 35 return
          </CharString>
          <CharString index="120">
            hstemhm
            hintmask 01100000
            -105 callsubr
            hintmask 00010000
            return
          </CharString>
          <CharString index="121">
            0 40 216 40 275 40 hstem
            277 callsubr
            150 45 vstem
            397 433 rmoveto
            92 16 -39 86 -78 hhcurveto
            -151 -89 callsubr
            83 55 callsubr
            -19 hlineto
            36 216 228 callsubr
            -45 1 rmoveto
            -62 -10 -42 -76 -69 hhcurveto
            -75 hlineto
            46 275 rlineto
            75 hlineto
            71 14 -80 -57 -10 hvcurveto
            endchar
          </CharString>
          <CharString index="122">
            hlineto
            -9 -20 0 -20 -3 hvcurveto
            -20 -4 20 0 return
          </CharString>
          <CharString index="123">
            -6 7 -16 -6 46 callsubr
            return
          </CharString>
          <CharString index="124">
            rmoveto
            -80 callsubr
            hintmask 0001000000000100
            73 callsubr
            hintmask 0000000001000000
            51 callsubr
            hintmask 0000000010000000
            -4 -19 rlineto
            hintmask 0010000000100000
            79 callsubr
            hintmask 0000000010000000
            76 callgsubr
            hintmask 0000000001000100
            4 194 callgsubr
          </CharString>
          <CharString index="125">
            hlineto
            -63 callsubr
            8 hhcurveto
            16 hlineto
            return
          </CharString>
          <CharString index="126">
            -7 -8 -5 -6 -1 -4 rrcurveto
            return
          </CharString>
          <CharString index="127">
            95 callsubr
            27 30 27 35 23 hvcurveto
            3 4 1 38 callsubr
            -13 21 29 4 hvcurveto
            8 return
          </CharString>
          <CharString index="128">
            140 hlineto
            88 86 141 159 26 hvcurveto
            -45 1 rmoveto
            -129 -21 -61 -132 -79 hhcurveto
            -68 hlineto
            return
          </CharString>
          <CharString index="129">
            6 1 0 10 -8 hhcurveto
            -6 -3 -5 -6 -3 hvcurveto
            -11 -23 -15 -27 -19 -2 rrcurveto
            -4 -9 -1 -9 -1 hvcurveto
            -7 -1 3 -3 7 hhcurveto
            12 26 22 1 2 hvcurveto
            -39 -232 rlineto
            -32 hlineto
            -4 -10 0 -10 -1 hvcurveto
            -10 -2 10 0 4 hhcurveto
            return
          </CharString>
          <CharString index="130">
            hlineto
            9 73 callgsubr
            return
          </CharString>
          <CharString index="131">
            rlineto
            36 callsubr
            return
          </CharString>
          <CharString index="132">
            106 -95 callsubr
            return
          </CharString>
          <CharString index="133">
            126 callgsubr
            204 117 callgsubr
          </CharString>
          <CharString index="134">
            43 -23 59 callsubr
            return
          </CharString>
          <CharString index="135">
            331 103 rmoveto
            5 1 -3 14 -18 hhcurveto
            -13 -5 -7 -16 -6 hvcurveto
            -60 -28 -47 -5 -13 hhcurveto
            -59 -35 66 98 7 hvcurveto
            207 hlineto
            13 15 0 29 5 hvcurveto
            116 19 -33 92 -85 hhcurveto
            -78 -85 -98 -122 -20 hvcurveto
            -20 -117 49 -90 91 -16 -50 -40 -20 -29 -7 -44 178 callsubr
            4 4 0 9 -4 5 198 callgsubr
            return
          </CharString>
          <CharString index="136">
            -38 callgsubr
            endchar
          </CharString>
          <CharString index="137">
            rmoveto
            62 10 -108 10 -41 hhcurveto
            -50 -106 -19 -54 -9 hvcurveto
            -14 -3 11 -3 10 hhcurveto
            18 -1 8 11 9 hvcurveto
            13 11 23 16 80 hhcurveto
            33 49 -4 -20 18 hvcurveto
            -9 7 -3 -16 18 hhcurveto
            12 10 6 13 2 hvcurveto
            endchar
          </CharString>
          <CharString index="138">
            -105 callgsubr
            24 hlineto
            return
          </CharString>
          <CharString index="139">
            -169 -306 -11 17 -18 48 13 73 rlinecurve
            98 16 62 83 64 hhcurveto
            19 17 -10 -3 7 hvcurveto
            38 -168 rmoveto
            -99 -17 -61 -80 -63 hhcurveto
            -11 -14 3 11 -17 hvcurveto
            169 306 3 -6 25 -51 -14 -84 rlinecurve
            return
          </CharString>
          <CharString index="140">
            -22 -3 12 -13 15 hhcurveto
            0 6 1 6 4 vhcurveto
            -12 115 callgsubr
            58 33 79 13 hvcurveto
            endchar
          </CharString>
          <CharString index="141">
            rmoveto
            74 12 -77 0 -43 hhcurveto
            -43 -77 0 -74 -12 hvcurveto
            -18 -3 12 -4 7 hhcurveto
            17 6 21 6 2 hvcurveto
            21 5 25 6 102 callgsubr
            6 -9 11 6 14 3 19 3 vhcurveto
            endchar
          </CharString>
          <CharString index="142">
            65 11 40 51 36 hhcurveto
            40 19 -53 -63 -11 hvcurveto
            11 -372 rmoveto
            return
          </CharString>
          <CharString index="143">
            20 71 callgsubr
            return
          </CharString>
          <CharString index="144">
            40 callsubr
            hintmask 00100000
            return
          </CharString>
          <CharString index="145">
            9 -4 5 16 callsubr
            -15 return
          </CharString>
          <CharString index="146">
            -60 callgsubr
            -9 hhcurveto
            return
          </CharString>
          <CharString index="147">
            hstemhm
            hintmask 11000000
            -66 callsubr
            return
          </CharString>
          <CharString index="148">
            -28 12 21 -30 40 hhcurveto
            72 82 92 127 22 hvcurveto
            -45 hmoveto
            -103 -18 -58 -76 -52 hhcurveto
            -56 -7 95 54 9 hvcurveto
            13 82 rlineto
            return
          </CharString>
          <CharString index="149">
            -70 15 callsubr
            return
          </CharString>
          <CharString index="150">
            39 22 35 2 31 hhcurveto
            32 34 -2 -39 8 hvcurveto
            9 -42 -17 -105 -13 -77 rrcurveto
            return
          </CharString>
          <CharString index="151">
            -6 58 callgsubr
            return
          </CharString>
          <CharString index="152">
            rlineto
            27 5 176 callgsubr
            return
          </CharString>
          <CharString index="153">
            -5 -6 rrcurveto
            -17 -10 -20 -21 -14 hhcurveto
            return
          </CharString>
          <CharString index="154">
            -214 41 199 -20 hstem
            223 44 vstem
            267 -121 rmoveto
            6 39 -16 36 -43 13 rrcurveto
            42 8 -1 17 -20 hhcurveto
            -18 -6 -17 -14 -3 hvcurveto
            -6 -34 -2 -15 2 -13 17 -2 rlinecurve
            230 callgsubr
            -45 -8 273 callgsubr
            -3 hvcurveto
            -20 -4 19 0 19 hhcurveto
            52 90 0 93 16 hvcurveto
            endchar
          </CharString>
          <CharString index="155">
            14 2 -4 2 -10 hhcurveto
            -8 hlineto
            -9 -1 -1 -9 -6 hvcurveto
            -114 -194 -1 -2 0 -2 -1 -3 252 callgsubr
            -78 callsubr
            86 hlineto
            -12 -67 rlineto
            -21 hlineto
            -4 -10 0 -10 -1 hvcurveto
            -10 -2 10 0 4 hhcurveto
            61 hlineto
            4 10 0 10 2 hvcurveto
            10 1 -10 0 -4 hhcurveto
            -21 hlineto
            12 67 rlineto
            27 hlineto
            4 9 0 10 1 hvcurveto
            return
          </CharString>
          <CharString index="156">
            rlineto
            16 hlineto
            8 20 39 callsubr
            return
          </CharString>
          <CharString index="157">
            40 257 184 callsubr
            return
          </CharString>
          <CharString index="158">
            -30 -22 -29 -28 -6 -41 rrcurveto
            return
          </CharString>
          <CharString index="159">
            14 2 14 10 14 hhcurveto
            return
          </CharString>
          <CharString index="160">
            -200 149 callgsubr
            145 24 rmoveto
            19 4 -5 20 -19 hhcurveto
            0 -29 0 -5 -36 vhcurveto
            -28 -213 rlineto
            -11 -2 -2 -24 18 hhcurveto
            18 6 24 13 2 hvcurveto
            165 210 rmoveto
            37 8 -25 0 -4 hhcurveto
            -18 -16 -20 -4 1 hvcurveto
            -30 -223 rlineto
            -12 -1 -3 -25 19 hhcurveto
            17 6 24 11 3 hvcurveto
            endchar
          </CharString>
          <CharString index="161">
            hstemhm
            -1 39 0 44 7 44 3 45 -39 39 -6 45 48 45 -34 39 return
          </CharString>
          <CharString index="162">
            hlineto
            9 20 0 20 3 hvcurveto
            20 4 277 callgsubr
            return
          </CharString>
          <CharString index="163">
            rlineto
            -15 -2 142 callsubr
            return
          </CharString>
          <CharString index="164">
            109 callsubr
            -8 hhcurveto
            return
          </CharString>
          <CharString index="165">
            1 7 -4 10 -2 4 -119 192 rcurveline
            8 -6 -2 1 -4 hhcurveto
            -6 -10 -6 -17 -3 hvcurveto
            -1 -8 5 -9 3 -4 110 -178 rcurveline
            -170 -178 -3 -4 -9 -9 -1 -8 rlinecurve
            -17 -3 8 -6 6 hhcurveto
            4 2 1 8 9 hvcurveto
            185 194 4 4 5 7 1 8 rlinecurve
            endchar
          </CharString>
          <CharString index="166">
            43 -25 43 -23 43 hstemhm
            return
          </CharString>
          <CharString index="167">
            41 callgsubr
            -3 return
          </CharString>
          <CharString index="168">
            7 7 5 7 4 vvcurveto
            endchar
          </CharString>
          <CharString index="169">
            125 callgsubr
            531 40 hstemhm
            return
          </CharString>
          <CharString index="170">
            rlineto
            48 callgsubr
            return
          </CharString>
          <CharString index="171">
            -11 -2 9 -5 8 hhcurveto
            7 11 5 11 2 hvcurveto
            return
          </CharString>
          <CharString index="172">
            40 531 40 return
          </CharString>
          <CharString index="173">
            23 146 callgsubr
            164 211 137 callsubr
          </CharString>
          <CharString index="174">
            1 9 1 10 7 return
          </CharString>
          <CharString index="175">
            -48 -8 1 -10 24 -6 callgsubr
            -73 166 rmoveto
            return
          </CharString>
          <CharString index="176">
            591 28 callgsubr
            return
          </CharString>
          <CharString index="177">
            -4 77 callgsubr
            return
          </CharString>
          <CharString index="178">
            15 18 15 22 4 hvcurveto
            return
          </CharString>
          <CharString index="179">
            0 85 callsubr
            return
          </CharString>
          <CharString index="180">
            52 callsubr
            hintmask 0000000000001010
            -37 callgsubr
            return
          </CharString>
          <CharString index="181">
            40 -34 40 354 41 return
          </CharString>
          <CharString index="182">
            43 30 26 18 18 hvcurveto
            return
          </CharString>
          <CharString index="183">
            hmoveto
            275 callsubr
            return
          </CharString>
          <CharString index="184">
            -12 104 callgsubr
            return
          </CharString>
          <CharString index="185">
            80 callgsubr
            293 49 -13 25 -124 hhcurveto
            -124 -21 -25 -292 -49 hvcurveto
            return
          </CharString>
          <CharString index="186">
            -11 -1 9 -5 8 hhcurveto
            return
          </CharString>
          <CharString index="187">
            -150 113 callsubr
            hintmask 1000001000000000
            -34 callsubr
            -1 -4 rcurveline
            -8 -2 9 -6 6 hhcurveto
            13 59 33 79 13 hvcurveto
            endchar
          </CharString>
          <CharString index="188">
            163 callsubr
            0 44 return
          </CharString>
          <CharString index="189">
            33 5 -16 0 -11 hhcurveto
            -21 264 callsubr
            20 hhcurveto
            103 callsubr
            -20 -34 callgsubr
            59 hlineto
            8 17 0 20 3 hvcurveto
            20 4 -16 0 -20 hhcurveto
            33 200 rlineto
            return
          </CharString>
          <CharString index="190">
            20 3 -12 13 -13 hhcurveto
            return
          </CharString>
          <CharString index="191">
            390 568 -87 callgsubr
            return
          </CharString>
          <CharString index="192">
            40 345 40 return
          </CharString>
          <CharString index="193">
            355 165 rmoveto
            22 3 -16 0 -7 hhcurveto
            return
          </CharString>
          <CharString index="194">
            -19 0 -20 193 callsubr
            return
          </CharString>
          <CharString index="195">
            -24 -27 99 callsubr
            return
          </CharString>
          <CharString index="196">
            -10 -1 -5 rrcurveto
            return
          </CharString>
          <CharString index="197">
            hstemhm
            108 45 hintmask 00100000
            5 callgsubr
            return
          </CharString>
          <CharString index="198">
            110 callgsubr
            hstemhm
            return
          </CharString>
          <CharString index="199">
            -20 54 callsubr
            return
          </CharString>
          <CharString index="200">
            hstemhm
            85 45 149 44 0 44 return
          </CharString>
          <CharString index="201">
            hstemhm
            160 89 callgsubr
            return
          </CharString>
          <CharString index="202">
            -42 -7 20 -47 41 hhcurveto
            return
          </CharString>
          <CharString index="203">
            0 40 531 101 callsubr
            return
          </CharString>
          <CharString index="204">
            44 0 45 -8 44 -3 45 return
          </CharString>
          <CharString index="205">
            11 68 rlineto
            27 5 return
          </CharString>
          <CharString index="206">
            -27 -36 -37 hvcurveto
            return
          </CharString>
          <CharString index="207">
            37 7 -16 26 -32 hhcurveto
            -30 -23 -32 -32 -6 hvcurveto
            -37 -6 15 -25 33 hhcurveto
            30 23 31 32 5 hvcurveto
            -25 -1 rmoveto
            -16 -2 -12 -18 -15 hhcurveto
            -16 -8 15 20 3 hvcurveto
            16 3 12 20 15 hhcurveto
            return
          </CharString>
          <CharString index="208">
            40 54 27 callsubr
            return
          </CharString>
          <CharString index="209">
            40 -28 87 callgsubr
            return
          </CharString>
          <CharString index="210">
            -57 -345 rlineto
            return
          </CharString>
          <CharString index="211">
            1 7 -4 9 -6 10 -36 59 rcurveline
            14 -7 256 callgsubr
            5 -9 6 -10 41 -67 rcurveline
            3 -6 9 -2 4 1 10 1 10 7 2 15 rrcurveto
            return
          </CharString>
          <CharString index="212">
            1 7 -4 9 -7 10 -35 59 rcurveline
            14 -8 -9 -1 -9 hhcurveto
            -6 -10 -6 -16 -2 hvcurveto
            -1 -6 5 196 callsubr
            return
          </CharString>
          <CharString index="213">
            44 -38 45 0 89 callgsubr
            85 44 -34 45 return
          </CharString>
          <CharString index="214">
            3 callgsubr
            85 91 callsubr
            return
          </CharString>
          <CharString index="215">
            rmoveto
            24 4 -23 -7 callgsubr
            return
          </CharString>
          <CharString index="216">
            20 4 -19 0 return
          </CharString>
          <CharString index="217">
            -200 149 callgsubr
            206 23 137 callsubr
          </CharString>
          <CharString index="218">
            -13 hhcurveto
            -13 -17 return
          </CharString>
          <CharString index="219">
            4 hvcurveto
            -32 14 11 -12 19 hhcurveto
            hintmask 0000100000000000
            5 callsubr
            hintmask 0000010000000000
            7 return
          </CharString>
          <CharString index="220">
            -140 -66 callgsubr
            return
          </CharString>
          <CharString index="221">
            -30 -22 -28 186 callgsubr
            return
          </CharString>
          <CharString index="222">
            -16 -9 2 -14 12 hhcurveto
            8 6 6 9 6 hvcurveto
            return
          </CharString>
          <CharString index="223">
            -20 44 callgsubr
            return
          </CharString>
          <CharString index="224">
            -60 callsubr
            4 hvcurveto
            return
          </CharString>
          <CharString index="225">
            35 callsubr
            hintmask 1100000100100000
            -50 -8 -57 -53 -72 hhcurveto
            -72 -40 53 50 8 hvcurveto
            3 17 8 41 33 27 rrcurveto
            return
          </CharString>
          <CharString index="226">
            353 -38 callsubr
            -18 0 -20 hhcurveto
            44 263 rlineto
            21 3 15 107 -58 hhcurveto
            -25 -23 -16 -38 -25 hvcurveto
            15 -2 -9 39 -33 hhcurveto
            -32 -23 -29 -10 -8 hvcurveto
            return
          </CharString>
          <CharString index="227">
            rmoveto
            130 callsubr
            -5 17 -21 19 hhcurveto
            20 return
          </CharString>
          <CharString index="228">
            35 -23 36 -35 35 return
          </CharString>
          <CharString index="229">
            77 15 -83 -58 -10 hvcurveto
            -72 -12 -49 -70 -65 hhcurveto
            -74 -17 65 23 3 hvcurveto
            0 8 12 2 10 vhcurveto
            18 3 -12 13 -14 hhcurveto
            -12 -17 -8 -27 -5 hvcurveto
            return
          </CharString>
          <CharString index="230">
            380 306 rmoveto
            24 4 -24 0 -9 hhcurveto
            -242 hlineto
            -9 -24 0 -24 -4 hvcurveto
            -23 -4 22 -78 callsubr
            248 hlineto
            8 22 0 23 4 hvcurveto
            return
          </CharString>
          <CharString index="231">
            -20 -23 -20 -29 -5 hvcurveto
            -27 return
          </CharString>
          <CharString index="232">
            -12 169 callgsubr
            return
          </CharString>
          <CharString index="233">
            0 20 3 hvcurveto
            -97 106 rmoveto
            -4 -26 -5 -28 -32 -20 rrcurveto
            hintmask 01000000
            -28 -18 -35 0 0 vvcurveto
            -45 -21 40 45 8 hvcurveto
            63 10 81 43 88 hhcurveto
            return
          </CharString>
          <CharString index="234">
            -5 5 -17 -4 273 callsubr
            -12 192 callsubr
            9 51 34 46 33 26 rrcurveto
            76 -81 callgsubr
            return
          </CharString>
          <CharString index="235">
            -22 callgsubr
            endchar
          </CharString>
          <CharString index="236">
            hvcurveto
            2 53 13 83 10 57 11 65 13 77 15 53 rrcurveto
            60 18 19 23 67 hhcurveto
            67 10 -24 -60 -2 hvcurveto
            -2 -53 -13 -83 -10 -57 rrcurveto
            return
          </CharString>
          <CharString index="237">
            233 callsubr
            124 callsubr
            return
          </CharString>
          <CharString index="238">
            -20 93 callsubr
            return
          </CharString>
          <CharString index="239">
            -15 8 -7 9 -1 return
          </CharString>
          <CharString index="240">
            -19 0 -9 hhcurveto
            return
          </CharString>
          <CharString index="241">
            -8 -19 0 -20 return
          </CharString>
          <CharString index="242">
            -9 -10 -6 -7 -1 -8 rrcurveto
            -20 -3 13 -13 13 hhcurveto
            13 18 13 20 3 hvcurveto
            87 15 -48 62 -61 hhcurveto
            -65 -67 -80 -96 -16 hvcurveto
            return
          </CharString>
          <CharString index="243">
            108 callsubr
            -54 191 callgsubr
            -23 -4 hvcurveto
            -24 -4 22 0 9 hhcurveto
            54 149 callsubr
            4 hvcurveto
            endchar
          </CharString>
          <CharString index="244">
            146 callgsubr
            endchar
          </CharString>
          <CharString index="245">
            180 callsubr
            173 callgsubr
            return
          </CharString>
          <CharString index="246">
            hstemhm
            72 44 179 45 -32 44 -21 44 return
          </CharString>
          <CharString index="247">
            -5 -13 -14 callsubr
            -15 return
          </CharString>
          <CharString index="248">
            40 258 41 232 40 return
          </CharString>
          <CharString index="249">
            212 callgsubr
            19 return
          </CharString>
          <CharString index="250">
            vstem
            305 241 rmoveto
            73 12 -37 51 -43 hhcurveto
            -49 -51 -53 -71 -12 hvcurveto
            -68 -11 34 -54 46 hhcurveto
            50 50 57 65 11 hvcurveto
            return
          </CharString>
          <CharString index="251">
            hstemhm
            164 callgsubr
            return
          </CharString>
          <CharString index="252">
            rmoveto
            103 17 -26 109 -84 hhcurveto
            -69 -75 -111 -102 -17 hvcurveto
            -101 -17 32 -112 75 hhcurveto
            78 69 110 104 17 hvcurveto
            return
          </CharString>
          <CharString index="253">
            -44 7 rmoveto
            -103 -17 -55 -83 -53 hhcurveto
            -53 -28 84 102 17 hvcurveto
            101 17 55 73 52 hhcurveto
            51 31 -73 -101 -17 hvcurveto
            endchar
          </CharString>
          <CharString index="254">
            13 11 13 239 callgsubr
          </CharString>
          <CharString index="255">
            hlineto
            103 callsubr
            return
          </CharString>
          <CharString index="256">
            235 callsubr
            23 return
          </CharString>
          <CharString index="257">
            -50 -9 25 -37 33 hhcurveto
            42 45 27 47 24 hvcurveto
            -35 24 25 -39 33 hhcurveto
            48 40 73 78 13 hvcurveto
            -212 -41 rmoveto
            return
          </CharString>
          <CharString index="258">
            -1 -8 -8 hvcurveto
            -183 -192 -4 -4 -8 -10 -1 -7 rlinecurve
            -1 -8 3 -7 2 -4 121 -194 rcurveline
            -8 5 return
          </CharString>
          <CharString index="259">
            268 callsubr
            129 callgsubr
          </CharString>
          <CharString index="260">
            30 hlineto
            8 11 10 9 2 hvcurveto
            return
          </CharString>
          <CharString index="261">
            -22 -4 hvcurveto
            -22 return
          </CharString>
          <CharString index="262">
            -20 90 callsubr
            return
          </CharString>
          <CharString index="263" raw="1">
            727c891f 6ffb6705 77888e7e 9a1b9a92
            f7551df7 38f76715 978e0b 
          </CharString>
          <CharString index="264">
            hhcurveto
            -37 -8 33 11 2 hvcurveto
            0 4 6 1 5 vhcurveto
            9 1 -6 7 -7 hhcurveto
            -6 -8 -4 -14 -3 hvcurveto
            -43 -7 return
          </CharString>
          <CharString index="265">
            316 rmoveto
            10 1 -10 0 -4 hhcurveto
            -31 hlineto
            46 276 rlineto
            return
          </CharString>
          <CharString index="266">
            168 callsubr
            344 40 -39 39 return
          </CharString>
          <CharString index="267">
            45 62 44 -1 45 -44 44 0 44 return
          </CharString>
          <CharString index="268">
            rlineto
            13 2 -1 16 -15 hhcurveto
            return
          </CharString>
          <CharString index="269">
            12 20 0 20 3 hvcurveto
            return
          </CharString>
          <CharString index="270">
            hstemhm
            81 45 -27 44 return
          </CharString>
          <CharString index="271">
            -10 -61 rlineto
            -15 -2 return
          </CharString>
          <CharString index="272">
            19 hhcurveto
            19 6 return
          </CharString>
          <CharString index="273">
            8 2 9 rlinecurve
            return
          </CharString>
          <CharString index="274">
            17 3 -10 15 -15 hhcurveto
            -16 -15 -14 -20 -3 hvcurveto
            -49 -9 22 -44 71 hhcurveto
            91 104 128 195 33 hvcurveto
            return
          </CharString>
          <CharString index="275">
            -6 40 -34 40 return
          </CharString>
          <CharString index="276">
            154 callgsubr
            14 -15 hhcurveto
            -15 -18 -14 154 callsubr
            -3 13 -15 15 hhcurveto
            15 19 15 22 3 hvcurveto
            return
          </CharString>
          <CharString index="277">
            25 11 -13 -27 return
          </CharString>
          <CharString index="278">
            26 -39 hhcurveto
            -30 -36 -25 -47 -8 hvcurveto
            -12 -2 7 -7 10 hhcurveto
            10 9 10 8 2 hvcurveto
            2 16 rlineto
            return
          </CharString>
          <CharString index="279">
            5 102 callgsubr
            return
          </CharString>
          <CharString index="280">
            5 9 206 callgsubr
            return
          </CharString>
          <CharString index="281">
            3 callgsubr
            hstemhm
            return
          </CharString>
          <CharString index="282">
            37 159 41 return
          </CharString>
          <CharString index="283">
            -39 -234 rlineto
            return
          </CharString>
          <CharString index="284">
            -122 -21 137 40 0 41 279 40 0 41 return
          </CharString>
          <CharString index="285">
            94 callgsubr
            30 27 35 23 hvcurveto
            return
          </CharString>
          <CharString index="286">
            17 callgsubr
            3 -20 0 -8 hhcurveto
            return
          </CharString>
          <CharString index="287">
            217 callgsubr
            127 -20 return
          </CharString>
          <CharString index="288">
            hlineto
            -10 -10 -10 -11 -2 hvcurveto
            return
          </CharString>
          <CharString index="289">
            591 rmoveto
            20 3 return
          </CharString>
          <CharString index="290">
            -20 -3 126 callgsubr
            132 hlineto
            34 callgsubr
            -128 199 rmoveto
            -71 hlineto
            return
          </CharString>
          <CharString index="291">
            40 234 40 return
          </CharString>
          <CharString index="292">
            -14 callsubr
            -3 132 callsubr
            4 -1 10 2 5 6 63 67 rcurveline
            9 10 return
          </CharString>
          <CharString index="293">
            40 -34 249 callsubr
            56 44 return
          </CharString>
          <CharString index="294">
            59 33 hhcurveto
            22 -3 -41 -53 -8 hvcurveto
            return
          </CharString>
          <CharString index="295">
            -8 31 55 9 hvcurveto
            54 9 18 32 return
          </CharString>
          <CharString index="296">
            27 36 37 hvcurveto
            hintmask 00100000
            return
          </CharString>
          <CharString index="297">
            hstemhm
            81 45 42 45 return
          </CharString>
          <CharString index="298">
            -21 121 -20 return
          </CharString>
          <CharString index="299">
            21 29 4 hvcurveto
            return
          </CharString>
          <CharString index="300">
            -4 hvcurveto
            -20 -3 return
          </CharString>
          <CharString index="301">
            198 callgsubr
            8 return
          </CharString>
          <CharString index="302">
            hmoveto
            20 3 -13 return
          </CharString>
          <CharString index="303">
            -9 5 -10 41 -67 rcurveline
            3 -6 10 -2 4 67 callsubr
            3 15 rrcurveto
            return
          </CharString>
          <CharString index="304">
            104 183 callgsubr
            7 -8 hhcurveto
            -16 -8 -20 -10 -5 hvcurveto
            -306 -716 rlineto
            return
          </CharString>
          <CharString index="305">
            -21 120 27 callsubr
            return
          </CharString>
          <CharString index="306">
            20 -42 callsubr
            -9 hhcurveto
            return
          </CharString>
          <CharString index="307">
            44 89 44 -16 45 -24 44 return
          </CharString>
          <CharString index="308">
            16 -21 38 40 312 40 return
          </CharString>
          <CharString index="309">
            1 21 -16 hhcurveto
            -16 return
          </CharString>
          <CharString index="310">
            191 callsubr
            hstemhm
            return
          </CharString>
          <CharString index="311">
            62 2 -72 -39 -6 hvcurveto
            -35 -295 rmoveto
            -54 -9 -35 -71 -66 hhcurveto
            -89 hlineto
            return
          </CharString>
          <CharString index="312">
            -32 -30 -5 hvcurveto
            -30 -5 21 -32 29 hhcurveto
            29 31 32 30 5 hvcurveto
            endchar
          </CharString>
          <CharString index="313">
            0 141 callsubr
            return
          </CharString>
          <CharString index="314">
            121 44 136 44 22 44 return
          </CharString>
          <CharString index="315">
            14 3 13 10 14 hhcurveto
            return
          </CharString>
          <CharString index="316">
            9 12 7 13 2 hvcurveto
            return
          </CharString>
          <CharString index="317">
            38 40 26 41 32 hvcurveto
            return
          </CharString>
          <CharString index="318">
            rmoveto
            18 3 -12 return
          </CharString>
          <CharString index="319">
            -11 -2 3 -13 9 hhcurveto
            9 7 13 11 2 hvcurveto
            142 851 rlineto
            return
          </CharString>
          <CharString index="320">
            61 callgsubr
            76 -21 return
          </CharString>
          <CharString index="321">
            44 -28 44 -9 44 return
          </CharString>
          <CharString index="322">
            10 61 rlineto
            95 hlineto
            return
          </CharString>
          <CharString index="323">
            1 -5 hhcurveto
            -11 return
          </CharString>
          <CharString index="324">
            -20 81 callsubr
            15 56 33 44 -10 56 -29 45 return
          </CharString>
          <CharString index="325">
            245 callsubr
            169 rmoveto
            return
          </CharString>
          <CharString index="326">
            8 7 4 7 4 vvcurveto
            endchar
          </CharString>
          <CharString index="327">
            19 -18 hhcurveto
            124 callsubr
            -4 16 -21 19 hhcurveto
            return
          </CharString>
          <CharString index="328">
            rlineto
            29 5 -9 3 -20 hhcurveto
            -16 hlineto
            -17 -3 -1 -19 -12 hvcurveto
            return
          </CharString>
          <CharString index="329">
            543 241 callsubr
            return
          </CharString>
          <CharString index="330">
            hstemhm
            49 38 91 38 -32 38 -13 38 25 38 9 38 22 38 return
          </CharString>
          <CharString index="331">
            -5 -6 rrcurveto
            -17 -10 139 callgsubr
            return
          </CharString>
          <CharString index="332">
            rlineto
            -11 -2 -1 -26 19 hhcurveto
            19 7 25 12 2 hvcurveto
            endchar
          </CharString>
          <CharString index="333">
            52 callgsubr
            93 -21 return
          </CharString>
          <CharString index="334">
            3 callgsubr
            135 -20 hstemhm
            return
          </CharString>
          <CharString index="335">
            rlineto
            87 hlineto
            79 66 88 89 15 hvcurveto
            return
          </CharString>
          <CharString index="336">
            89 callgsubr
            cntrmask 00111000
            return
          </CharString>
          <CharString index="337">
            74 45 191 45 1 45 return
          </CharString>
          <CharString index="338">
            346 234 callsubr
            return
          </CharString>
          <CharString index="339">
            -13 -2 10 -7 9 hhcurveto
            return
          </CharString>
          <CharString index="340">
            30 5 -18 19 -17 hhcurveto
            return
          </CharString>
          <CharString index="341">
            33 rmoveto
            13 83 rlineto
            return
          </CharString>
          <CharString index="342">
            hlineto
            8 23 0 return
          </CharString>
          <CharString index="343">
            hvcurveto
            36 27 34 17 36 hhcurveto
            58 18 -80 -77 -13 hvcurveto
            -87 return
          </CharString>
          <CharString index="344">
            28 4 22 13 22 hhcurveto
            14 12 -7 -11 13 hvcurveto
            endchar
          </CharString>
          <CharString index="345">
            239 callsubr
            85 hlineto
            75 2 -96 -37 -6 hvcurveto
            endchar
          </CharString>
          <CharString index="346">
            43 258 rlineto
            return
          </CharString>
          <CharString index="347">
            -7 -13 -2 hvcurveto
            return
          </CharString>
          <CharString index="348">
            rmoveto
            83 callsubr
            -14 -17 -13 -20 -3 hvcurveto
            return
          </CharString>
          <CharString index="349">
            rmoveto
            10 2 -9 0 -4 hhcurveto
            -27 hlineto
            32 190 rlineto
            return
          </CharString>
          <CharString index="350">
            hlineto
            -9 -11 -2 -8 -2 hvcurveto
            -10 -1 10 -2 9 hhcurveto
            return
          </CharString>
          <CharString index="351">
            207 callgsubr
            -4 126 callgsubr
            return
          </CharString>
          <CharString index="352">
            -22 callgsubr
            -24 return
          </CharString>
          <CharString index="353">
            104 rmoveto
            -80 hlineto
            110 186 rlineto
            1 hlineto
            endchar
          </CharString>
          <CharString index="354">
            11 2 1 26 -18 hhcurveto
            -20 -7 return
          </CharString>
          <CharString index="355">
            hlineto
            -4 -11 0 -11 -2 hvcurveto
            -11 return
          </CharString>
          <CharString index="356">
            161 callgsubr
            hstemhm
            return
          </CharString>
          <CharString index="357">
            86 callgsubr
            14 return
          </CharString>
          <CharString index="358">
            -17 -16 -3 hvcurveto
            return
          </CharString>
          <CharString index="359">
            275 callgsubr
            hintmask 11001000
            return
          </CharString>
          <CharString index="360">
            -5 -5 -1 hvcurveto
            -10 -2 8 0 5 hhcurveto
            16 hlineto
            return
          </CharString>
          <CharString index="361">
            -4 -2 -4 -1 -6 rlinecurve
            -30 -5 12 -1 16 hhcurveto
            return
          </CharString>
          <CharString index="362">
            229 callgsubr
            -34 40 hstemhm
            return
          </CharString>
          <CharString index="363">
            4 12 2 hvcurveto
            1 5 -2 3 -3 4 rrcurveto
            28 return
          </CharString>
          <CharString index="364">
            rmoveto
            -68 hlineto
            114 687 rlineto
            68 hlineto
            endchar
          </CharString>
          <CharString index="365">
            34 callgsubr
            endchar
          </CharString>
          <CharString index="366">
            21 6 2 hvcurveto
            22 6 return
          </CharString>
          <CharString index="367">
            -27 44 0 44 return
          </CharString>
          <CharString index="368">
            hstemhm
            69 45 55 97 callsubr
            return
          </CharString>
          <CharString index="369">
            31 27 35 23 hvcurveto
            3 4 0 9 -4 5 return
          </CharString>
          <CharString index="370">
            hstemhm
            72 45 37 44 -17 44 -44 45 80 44 return
          </CharString>
          <CharString index="371">
            hlineto
            -8 -20 0 -20 -3 hvcurveto
            -20 -4 18 0 return
          </CharString>
          <CharString index="372">
            9 21 8 25 4 hvcurveto
            1 6 -3 8 -5 return
          </CharString>
          <CharString index="373">
            40 hstemhm
            160 44 0 44 return
          </CharString>
          <CharString index="374">
            -118 -709 rlineto
            -11 -2 return
          </CharString>
          <CharString index="375">
            hvcurveto
            101 66 9 6 11 8 return
          </CharString>
          <CharString index="376">
            -28 26 -39 hhcurveto
            -30 return
          </CharString>
          <CharString index="377">
            20 33 22 13 28 4 26 rrcurveto
            37 6 return
          </CharString>
          <CharString index="378">
            104 callgsubr
            73 91 callsubr
            return
          </CharString>
          <CharString index="379">
            rlineto
            12 2 202 callsubr
            -7 -21 return
          </CharString>
          <CharString index="380">
            46 callsubr
            -15 return
          </CharString>
          <CharString index="381">
            4 -110 178 rcurveline
            170 178 return
          </CharString>
          <CharString index="382">
            16 3 -8 6 -6 hhcurveto
            -9 -9 1 -14 return
          </CharString>
          <CharString index="383">
            hstemhm
            116 62 return
          </CharString>
          <CharString index="384">
            69 45 43 45 return
          </CharString>
          <CharString index="385">
            5 hvcurveto
            -143 return
          </CharString>
        <CharString name=".notdef">
          173 endchar
        </CharString>
        <CharString name="A">
          0 32 callgsubr
          hstem
          -107 callgsubr
          endchar
        </CharString>
        <CharString name="AE">
          214 callgsubr
          hstem
          49 38 97 38 97 38 cntrmask 00001110
          4 callgsubr
          33 callgsubr
          77 hlineto
          -25 -152 rlineto
          -7 -20 0 -20 -4 hvcurveto
          183 callsubr
          102 339 rlineto
          25 hlineto
          endchar
        </CharString>
        <CharString name="AE.dup">
          214 callgsubr
          223 callsubr
          hintmask 1011001011100000
          4 callgsubr
          hintmask 1101110000000000
          33 callgsubr
          hintmask 0100000100000000
          77 hlineto
          hintmask 1000001000000000
          272 callgsubr
          hintmask 1100010010000000
          183 callsubr
          hintmask 0001000110000000
          102 339 rlineto
          25 hlineto
          hintmask 0100010000000000
          endchar
        </CharString>
        <CharString name="AEacute">
          214 callgsubr
          85 -21 119 -20 223 callsubr
          hintmask 1011000010111000
          4 callgsubr
          hintmask 1101001100000000
          33 callgsubr
          hintmask 0100000001000000
          77 hlineto
          hintmask 1000000010000000
          272 callgsubr
          hintmask 1100000100100000
          183 callsubr
          hintmask 0001000001100000
          102 339 rlineto
          25 hlineto
          hintmask 0100000100000000
          hintmask 0000110000000000
          104 199 -104 callsubr
        </CharString>
        <CharString name="Aacute">
          0 32 callgsubr
          91 -21 119 -20 -102 callgsubr
          hintmask 00011000
          107 205 -104 callsubr
        </CharString>
        <CharString name="Abreve">
          0 32 callgsubr
          70 42 54 -20 -102 callgsubr
          hintmask 00011000
          -2 callgsubr
          endchar
        </CharString>
        <CharString name="Abreveacute">
          0 32 callgsubr
          70 42 32 42 6 42 71 -20 -102 callgsubr
          hintmask 00011110
          -2 callgsubr
          -24 137 11 callgsubr
        </CharString>
        <CharString name="Abrevedotbelow">
          -206 73 133 32 callgsubr
          70 42 54 -20 276 callsubr
          hintmask 01111100
          -107 callgsubr
          -2 callgsubr
          hintmask 10000010
          -242 -919 -99 callgsubr
          endchar
        </CharString>
        <CharString name="Abrevegrave">
          0 32 callgsubr
          70 42 32 42 6 42 -102 callgsubr
          hintmask 00011100
          -2 callgsubr
          -36 69 43 callgsubr
          2 9 rlinecurve
          14 2 11 10 11 hhcurveto
          9 9 -6 -7 8 103 callgsubr
        </CharString>
        <CharString name="Abrevehookabove">
          0 32 callgsubr
          70 42 241 33 hstemhm
          261 190 callgsubr
          34 -27 36 -30 35 -5 35 -4 34 hintmask 1110010000000000
          -107 callgsubr
          hintmask 0001000001000000
          151 184 183 callgsubr
          -41 callgsubr
          -3 hvcurveto
          hintmask 0001000010000000
          0 callsubr
          -25 169 rmoveto
          hintmask 0000110000100000
          -80 callsubr
          hintmask 0000100000010000
          52 callsubr
          hintmask 0000000100001000
          25 10 138 callgsubr
          hintmask 0000001000000000
          -3 -19 rlineto
          64 callsubr
          hintmask 0000000100010000
          3 19 4 65 callgsubr
          hintmask 0000000000001000
          147 callsubr
        </CharString>
        <CharString name="Abrevetilde">
          0 32 callgsubr
          70 42 94 43 -23 43 -25 43 -23 43 -102 callgsubr
          hintmask 00011001
          -2 callgsubr
          24 143 114 callgsubr
          173 callsubr
          hintmask 00000010
          60 callgsubr
          hintmask 00000100
          19 callsubr
          hintmask 00001001
          -80 callgsubr
          39 234 callgsubr
          -6 -8 3 hvcurveto
          -32 14 11 -12 19 hhcurveto
          hintmask 00000100
          24 28 247 callgsubr
          4 7 1 4 rrcurveto
          endchar
        </CharString>
        <CharString name="Acaron">
          0 32 callgsubr
          141 -20 -24 callgsubr
          124 164 -97 callsubr
        </CharString>
        <CharString name="Acircumflex">
          0 32 callgsubr
          82 -21 -24 callgsubr
          117 118 -104 callgsubr
          endchar
        </CharString>
        <CharString name="Acircumflexacute">
          0 32 callgsubr
          82 -21 219 -20 -102 callgsubr
          hintmask 00011000
          117 118 -104 callgsubr
          5 178 -67 callgsubr
          -87 -58 -8 140 callsubr
          -2 6 -12 14 hhcurveto
          4 7 3 3 5 268 callsubr
          1 9 rlinecurve
          endchar
        </CharString>
        <CharString name="Acircumflexdotbelow">
          -206 73 133 32 callgsubr
          82 -21 276 callsubr
          hintmask 01111000
          -107 callgsubr
          117 118 -104 callgsubr
          hintmask 10000100
          -208 -853 -99 callgsubr
          endchar
        </CharString>
        <CharString name="Acircumflexgrave">
          0 32 callgsubr
          82 -21 -24 callgsubr
          117 118 -104 callgsubr
          -6 110 43 callgsubr
          1 9 rlinecurve
          14 3 10 10 11 hhcurveto
          9 9 -6 -7 9 103 callgsubr
        </CharString>
        <CharString name="Acircumflexhookabove">
          0 32 callgsubr
          64 142 callgsubr
          313 36 -25 190 callgsubr
          36 -24 36 -18 34 -22 36 -4 34 hintmask 1110000000000000
          -107 callgsubr
          hintmask 0001001000001000
          117 118 rmoveto
          1 5 0 10 -7 4 -67 40 rcurveline
          -10 6 -6 0 -12 -6 -81 -40 rcurveline
          -9 -4 -2 89 callsubr
          hintmask 0000100000000000
          -8 -2 3 -9 11 hhcurveto
          hintmask 0001000000100000
          5 4 -1 4 9 hvcurveto
          69 29 59 -29 rlineto
          hintmask 0000100000100000
          109 callgsubr
          hintmask 0000010100010000
          49 callgsubr
          hintmask 0000010000000100
          208 callsubr
          hintmask 0000001000001010
          124 callgsubr
          hintmask 0000000010000000
          -3 -19 rlineto
          64 callsubr
          hintmask 0000000001000100
          131 callgsubr
          hintmask 0000000000000010
          147 callsubr
        </CharString>
        <CharString name="Acircumflextilde">
          0 32 callgsubr
          82 -21 120 43 -23 43 -25 43 -23 43 -102 callgsubr
          hintmask 00011001
          117 118 -104 callgsubr
          53 184 -87 callsubr
          hintmask 00000010
          60 callgsubr
          hintmask 00000100
          19 callsubr
          hintmask 00001001
          -80 callgsubr
          39 234 callgsubr
          -6 -8 3 hvcurveto
          -32 14 11 -12 19 hhcurveto
          hintmask 00000100
          5 callsubr
          hintmask 00000010
          219 callsubr
        </CharString>
        <CharString name="Adblgrave">
          0 32 callgsubr
          92 -21 121 -20 -102 callgsubr
          hintmask 00011000
          -13 134 rmoveto
          2 -94 callsubr
          9 -2 5 67 callsubr
          2 15 rrcurveto
          133 hmoveto
          2 -94 callsubr
          9 -2 5 67 callsubr
          2 15 rrcurveto
          endchar
        </CharString>
        <CharString name="Adieresis">
          0 32 callgsubr
          60 64 hstemhm
          202 56 67 56 -102 callsubr
          hintmask 00011100
          -11 132 -73 callsubr
        </CharString>
        <CharString name="Adotbelow">
          -206 73 133 32 callgsubr
          276 callsubr
          hintmask 01110000
          -107 callgsubr
          hintmask 10001000
          -91 -735 -99 callgsubr
          endchar
        </CharString>
        <CharString name="Agrave">
          0 32 callgsubr
          91 -21 119 -20 -102 callgsubr
          hintmask 00011000
          95 137 -83 callsubr
        </CharString>
        <CharString name="Ahookabove">
          0 32 callgsubr
          93 143 callgsubr
          245 12 callsubr
          -4 34 hintmask 1110000000000000
          -107 callgsubr
          hintmask 0000110001000000
          110 259 -55 callgsubr
        </CharString>
        <CharString name="Alpha">
          0 32 callgsubr
          hstem
          -107 callgsubr
          endchar
        </CharString>
        <CharString name="Amacron">
          0 32 callgsubr
          80 41 -24 callgsubr
          153 140 rmoveto
          21 4 -65 callsubr
          3 hvcurveto
          endchar
        </CharString>
        <CharString name="Aogonek">
          -210 37 173 32 callgsubr
          hstem
          175 40 53 40 vstem
          2 callgsubr
          endchar
        </CharString>
        <CharString name="Aogonekacute">
          -210 37 173 32 callgsubr
          91 91 callsubr
          175 40 53 40 hintmask 11110011
          2 callgsubr
          hintmask 00001100
          108 211 -104 callsubr
        </CharString>
        <CharString name="Aring">
          0 40 135 41 407 22 -20 -20 120 22 hstemhm
          234 27 56 27 hintmask 11010100
          -107 callgsubr
          hintmask 00101110
          48 120 29 callgsubr
        </CharString>
        <CharString name="Aringacute">
          0 40 135 41 409 20 80 20 0 20 119 -20 hstemhm
          234 27 -9 27 38 27 hintmask 1110001000000000
          -107 callgsubr
          hintmask 0011001010000000
          48 120 18 callgsubr
          30 -29 hhcurveto
          -29 -31 -30 -30 -5 hvcurveto
          hintmask 0010110110000000
          -30 -5 21 -30 29 hhcurveto
          29 31 30 30 5 hvcurveto
          47 175 -104 callsubr
        </CharString>
        <CharString name="Atilde">
          0 32 callgsubr
          60 43 -23 43 -25 43 -23 43 -102 callgsubr
          hintmask 00010010
          149 181 -87 callsubr
          hintmask 00000100
          60 callgsubr
          hintmask 00001000
          19 callsubr
          hintmask 00010010
          -62 callgsubr
          hintmask 00001000
          5 callsubr
          hintmask 00000100
          61 callsubr
        </CharString>
        <CharString name="B">
          206 callsubr
          hstem
          66 89 callgsubr
          cntrmask 00011100
          353 163 rmoveto
          12 69 -12 60 -72 29 61 38 34 32 12 70 rrcurveto
          72 12 -31 78 -74 hhcurveto
          -152 -105 callgsubr
          18 165 callgsubr
          -18 -101 callsubr
          166 hlineto
          172 callgsubr
          204 callsubr
          238 callsubr
        </CharString>
        <CharString name="Beta">
          206 callsubr
          hstemhm
          66 44 43 45 -44 44 -44 45 38 44 28 44 -9 44 hintmask 1011010101000000
          353 163 rmoveto
          12 69 -12 60 -72 29 61 38 34 32 12 70 rrcurveto
          72 12 -31 78 -74 hhcurveto
          -152 -105 callgsubr
          18 165 callgsubr
          -18 -101 callsubr
          166 hlineto
          hintmask 0110010110000000
          172 callgsubr
          hintmask 1001001001000000
          204 callsubr
          hintmask 0100100010000000
          238 callsubr
        </CharString>
        <CharString name="C">
          77 callsubr
          hstem
          230 callsubr
          vstem
          86 callsubr
          -63 callgsubr
          endchar
        </CharString>
        <CharString name="Cacute">
          261 callgsubr
          230 callsubr
          hintmask 11001110
          86 callsubr
          -63 callgsubr
          hintmask 00110000
          31 605 -104 callsubr
        </CharString>
        <CharString name="Ccaron">
          77 callsubr
          123 -20 hstemhm
          230 callsubr
          hintmask 11011100
          86 callsubr
          -63 callgsubr
          hintmask 00100000
          48 564 -97 callsubr
        </CharString>
        <CharString name="Ccedilla">
          -214 41 161 104 callgsubr
          hstemhm
          74 44 -44 45 -35 46 102 44 13 46 -25 45 1 45 hintmask 0000000100000000
          86 callsubr
          hintmask 0100100010000000
          -9 -12 -4 -17 -4 hvcurveto
          -130 -28 -72 -8 -12 hhcurveto
          -67 -39 117 161 27 hvcurveto
          hintmask 0111001101000000
          161 27 77 116 66 hhcurveto
          38 35 -45 -95 -6 hvcurveto
          -22 -2 5 -6 14 hhcurveto
          19 6 12 17 3 hvcurveto
          25 150 rlineto
          13 2 -1 16 -16 hhcurveto
          -11 -7 -11 -7 -3 hvcurveto
          -16 -34 rlineto
          37 -23 -29 15 -30 hhcurveto
          -88 -100 -137 -180 -30 hvcurveto
          -30 -181 54 -133 84 -4 -5 -27 rcurveline
          -2 -15 2 -13 17 -2 230 callgsubr
          hintmask 1000010000000000
          -45 -8 -72 -7 -22 hhcurveto
          -14 hlineto
          -9 -20 0 -21 -3 hvcurveto
          hintmask 1001001010000000
          -20 -4 19 0 19 hhcurveto
          52 90 0 93 16 hvcurveto
          6 39 -16 36 -42 13 5 29 rcurveline
          61 25 53 73 12 71 rrcurveto
          endchar
        </CharString>
        <CharString name="Ccircumflex">
          202 callgsubr
          hstemhm
          230 callsubr
          hintmask 11011100
          86 callsubr
          -63 callgsubr
          hintmask 00100000
          41 518 -104 callgsubr
          endchar
        </CharString>
        <CharString name="Cdotaccent">
          77 callsubr
          54 74 hstemhm
          74 45 154 62 -25 45 1 45 hintmask 00001000
          86 callsubr
          hintmask 11010110
          -63 callgsubr
          hintmask 00100100
          -20 549 154 callgsubr
          15 -15 hhcurveto
          hintmask 00101000
          -15 -18 -15 154 callsubr
          -4 14 -15 15 hhcurveto
          71 callsubr
          endchar
        </CharString>
        <CharString name="Chi">
          -3 callsubr
        </CharString>
        <CharString name="D">
          174 callsubr
          59 45 29 208 callgsubr
          hintmask 01010000
          10 callsubr
          hintmask 11101000
          83 callgsubr
          hintmask 10110100
          21 callsubr
          hintmask 01001100
          123 callgsubr
          endchar
        </CharString>
        <CharString name="Dcaron">
          227 callsubr
          59 45 29 208 callgsubr
          hintmask 01001000
          10 callsubr
          hintmask 11010100
          83 callgsubr
          hintmask 10011010
          21 callsubr
          hintmask 01000110
          123 callgsubr
          hintmask 00100000
          16 428 -97 callsubr
        </CharString>
        <CharString name="Dcroat">
          -11 callgsubr
        </CharString>
        <CharString name="Ddotbelow">
          70 callgsubr
          hstemhm
          59 45 -32 62 -1 208 callgsubr
          hintmask 00100100
          10 callsubr
          hintmask 01110010
          83 callgsubr
          hintmask 01010101
          21 callsubr
          hintmask 00100011
          123 callgsubr
          hintmask 10001000
          -199 -471 -99 callgsubr
          endchar
        </CharString>
        <CharString name="Delta">
          0 46 579 -20 hstem
          332 12 rmoveto
          -23 577 rlineto
          33 -1 -9 3 -20 hhcurveto
          -20 -10 -3 -33 -13 hvcurveto
          -213 -572 rlineto
          0 -2 -5 -3 vvcurveto
          -9 1 14 0 6 hhcurveto
          265 hlineto
          9 10 0 12 6 hvcurveto
          -44 34 rmoveto
          -210 hlineto
          191 518 rlineto
          endchar
        </CharString>
        <CharString name="Dlinebelow">
          276 callgsubr
          59 45 29 208 callgsubr
          hintmask 00101000
          10 callsubr
          hintmask 01110100
          83 callgsubr
          hintmask 01011010
          21 callsubr
          hintmask 00100110
          123 callgsubr
          hintmask 10000000
          -100 -470 rmoveto
          21 3 -65 callsubr
          4 hvcurveto
          endchar
        </CharString>
        <CharString name="E">
          61 callgsubr
          27 callgsubr
          hintmask 1111110110000000
          -106 callgsubr
          hintmask 0000001000000000
          258 callsubr
        </CharString>
        <CharString name="Eacute">
          61 callgsubr
          85 -21 119 96 callgsubr
          hintmask 1110011101100000
          -106 callgsubr
          hintmask 0000000010000000
          34 callgsubr
          hintmask 0001100000000000
          30 737 -104 callsubr
        </CharString>
        <CharString name="Ebreve">
          61 callgsubr
          64 42 54 96 callgsubr
          hintmask 1110011101100000
          -106 callgsubr
          hintmask 0000000010000000
          34 callgsubr
          hintmask 0001101000000000
          74 716 -87 callgsubr
          endchar
        </CharString>
        <CharString name="Ecaron">
          61 callgsubr
          135 96 callgsubr
          hintmask 1110111011000000
          -106 callgsubr
          hintmask 0000000100000000
          34 callgsubr
          hintmask 0001000000000000
          47 696 -97 callsubr
        </CharString>
        <CharString name="Ecircumflex">
          213 callsubr
          27 callgsubr
          hintmask 1110111011000000
          -106 callgsubr
          hintmask 0000000100000000
          34 callgsubr
          hintmask 0001000000000000
          40 650 -104 callgsubr
          endchar
        </CharString>
        <CharString name="Ecircumflexacute">
          213 callsubr
          219 96 callgsubr
          hintmask 1110011101100000
          -106 callgsubr
          hintmask 0000000010000000
          34 callgsubr
          hintmask 0001100100000000
          40 650 -104 callgsubr
          5 178 -67 callgsubr
          -87 -58 -8 140 callsubr
          -2 6 -12 14 hhcurveto
          4 7 3 3 5 268 callsubr
          1 9 rlinecurve
          endchar
        </CharString>
        <CharString name="Ecircumflexdotbelow">
          -206 73 133 50 callsubr
          76 -21 hstemhm
          69 45 2 62 -21 45 55 45 0 44 -32 45 6 45 hintmask 0111010110110000
          -106 callgsubr
          hintmask 0000100001000000
          34 callgsubr
          40 650 -104 callgsubr
          hintmask 1000001000000000
          -208 -853 -99 callgsubr
          endchar
        </CharString>
        <CharString name="Ecircumflexgrave">
          213 callsubr
          27 callgsubr
          hintmask 1110111011000000
          -106 callgsubr
          hintmask 0000000100000000
          34 callgsubr
          hintmask 0001000000000000
          40 650 -104 callgsubr
          -6 110 43 callgsubr
          1 9 rlinecurve
          14 3 10 10 11 hhcurveto
          9 9 -6 -7 9 103 callgsubr
        </CharString>
        <CharString name="Ecircumflexhookabove">
          61 callgsubr
          58 142 callgsubr
          277 callsubr
          55 45 0 44 -33 36 -35 45 -35 190 callgsubr
          36 -24 36 -33 45 -30 34 -22 36 -4 34 hintmask 111000111001000001000000
          -106 callgsubr
          hintmask 000000000100000000000000
          34 callgsubr
          hintmask 000100000010000000100000
          40 650 rmoveto
          1 5 0 10 -7 4 -67 40 rcurveline
          -10 6 -6 0 -12 -6 -81 -40 rcurveline
          -9 -4 -2 89 callsubr
          hintmask 000010000000000000000000
          -8 -2 3 -9 11 hhcurveto
          hintmask 000100000000000100000000
          5 4 -1 4 9 hvcurveto
          69 29 59 -29 rlineto
          hintmask 000010000000000100000000
          109 callgsubr
          hintmask 000001000000100010000000
          49 callgsubr
          hintmask 000001000000000000010000
          208 callsubr
          hintmask 000000000010000000101000
          124 callgsubr
          hintmask 000000000100000000000000
          -3 -19 rlineto
          -11 -2 9 -5 8 hhcurveto
          hintmask 000000000000010000000000
          7 11 5 11 2 hvcurveto
          hintmask 000000000000001000010000
          131 callgsubr
          hintmask 000000000000000000001000
          147 callsubr
        </CharString>
        <CharString name="Ecircumflextilde">
          0 40 257 40 234 40 76 -21 120 43 -23 43 -25 43 -23 43 27 callgsubr
          hintmask 1110000011101100
          -106 callgsubr
          hintmask 0000000000010000
          34 callgsubr
          hintmask 0001100100000100
          40 650 -104 callgsubr
          53 184 -87 callsubr
          hintmask 0000001000000000
          60 callgsubr
          hintmask 0000010000000000
          19 callsubr
          hintmask 0000100100000000
          -80 callgsubr
          39 234 callgsubr
          -6 -8 3 hvcurveto
          -32 14 11 -12 19 hhcurveto
          hintmask 0000010000000000
          5 callsubr
          hintmask 0000001000000000
          219 callsubr
        </CharString>
        <CharString name="Edblgrave">
          61 callgsubr
          86 -21 121 96 callgsubr
          hintmask 1110011101100000
          -106 callgsubr
          hintmask 0000000010000000
          34 callgsubr
          hintmask 0001100000000000
          -71 666 rmoveto
          2 -94 callsubr
          9 -2 5 67 callsubr
          2 15 rrcurveto
          133 hmoveto
          2 -94 callsubr
          9 -2 5 67 callsubr
          2 15 rrcurveto
          endchar
        </CharString>
        <CharString name="Edieresis">
          61 callgsubr
          54 64 hstemhm
          277 callsubr
          0 56 -1 45 0 44 -32 45 -34 56 -16 45 hintmask 1110110101010000
          -106 callgsubr
          hintmask 0000000010000000
          34 callgsubr
          hintmask 0001010000000000
          -88 664 rmoveto
          20 3 -13 12 111 callsubr
          -12 -20 -3 hvcurveto
          -19 -3 13 -13 13 hhcurveto
          hintmask 0001001000100000
          6 callgsubr
          123 hmoveto
          -92 callsubr
          endchar
        </CharString>
        <CharString name="Edotaccent">
          61 callgsubr
          66 74 hstemhm
          277 callsubr
          55 45 -39 62 -23 44 -32 45 6 45 hintmask 1100111001000000
          231 callsubr
          47 callgsubr
          -50 callgsubr
          hintmask 0000000100000000
          -40 -7 0 -15 99 callgsubr
          15 3 hvcurveto
          14 87 rlineto
          15 3 0 17 -19 hhcurveto
          hintmask 1110111000100000
          -103 callsubr
          hintmask 0000000010000000
          34 callgsubr
          hintmask 0001000100000000
          -21 681 -71 callsubr
        </CharString>
        <CharString name="Edotbelow">
          -206 73 133 50 callsubr
          hstemhm
          69 45 2 62 -21 45 55 45 0 44 -32 45 6 45 hintmask 0111101101100000
          -106 callgsubr
          hintmask 0000000010000000
          34 callgsubr
          hintmask 1000010000000000
          -168 -203 -99 callgsubr
          endchar
        </CharString>
        <CharString name="Egrave">
          61 callgsubr
          85 -21 119 96 callgsubr
          hintmask 1110011101100000
          -106 callgsubr
          hintmask 0000000010000000
          34 callgsubr
          hintmask 0001100000000000
          18 669 -83 callsubr
        </CharString>
        <CharString name="Ehookabove">
          61 callgsubr
          87 143 callgsubr
          277 callsubr
          43 36 -24 45 -35 35 -31 121 callsubr
          -17 34 -34 44 -32 35 -35 45 -14 34 -14 45 hintmask 111001101000000010100000
          -106 callgsubr
          hintmask 000000000000001000000000
          34 callgsubr
          hintmask 000010010000100000000000
          33 791 rmoveto
          -80 callsubr
          hintmask 000010000000000010000000
          52 callsubr
          hintmask 000000000000010001000000
          -37 callgsubr
          hintmask 000000000010000000000000
          51 callsubr
          hintmask 000000000100000000000000
          -4 -19 rlineto
          hintmask 000100000001000000000000
          79 callsubr
          hintmask 000000000000001000000000
          76 callgsubr
          hintmask 000000000010000100000000
          4 8 callsubr
          hintmask 000000000000000001000000
          8 callgsubr
        </CharString>
        <CharString name="Emacron">
          61 callgsubr
          74 41 27 callgsubr
          hintmask 1110111011000000
          -106 callgsubr
          hintmask 0000000100000000
          34 callgsubr
          hintmask 0001000000000000
          76 672 rmoveto
          21 4 -65 callsubr
          3 hvcurveto
          endchar
        </CharString>
        <CharString name="Eng">
          174 callsubr
          69 45 22 45 -24 45 42 45 51 44 hintmask 00001000
          384 306 rmoveto
          168 28 -7 149 -108 hhcurveto
          -34 -32 -20 -35 -29 hvcurveto
          hintmask 01010000
          37 6 -7 6 -20 -62 callsubr
          hintmask 11101000
          29 165 callgsubr
          -29 -101 callsubr
          hintmask 10110110
          103 -46 callsubr
          -29 hlineto
          67 405 rlineto
          74 20 42 58 46 hhcurveto
          77 -4 -141 -130 -22 hvcurveto
          -18 -106 -21 -126 -40 -32 rrcurveto
          7 -4 -5 4 -8 hhcurveto
          -13 -17 -13 -20 193 callsubr
          13 -12 13 hhcurveto
          88 38 168 150 25 hvcurveto
          endchar
        </CharString>
        <CharString name="Eogonek">
          -210 37 173 50 callsubr
          197 callgsubr
          hintmask 0000000000010000
          231 callsubr
          hintmask 0000000001000000
          47 callgsubr
          hintmask 0110110010010000
          -50 callgsubr
          -40 -7 0 -15 99 callgsubr
          15 3 hvcurveto
          14 87 rlineto
          15 3 0 17 -19 hhcurveto
          hintmask 0111110100001000
          -19 -6 -15 -41 -7 hvcurveto
          -94 hlineto
          39 234 rlineto
          173 hlineto
          -10 -61 rlineto
          -15 -2 140 callgsubr
          98 callsubr
          168 callgsubr
          -254 -89 callsubr
          hintmask 1100000010000000
          215 hlineto
          -53 -43 -22 -33 -7 -45 69 callgsubr
          3 4 0 9 -4 5 rrcurveto
          hintmask 1100001001000000
          152 callgsubr
          hintmask 0000000000100000
          258 callsubr
        </CharString>
        <CharString name="Eogonekacute">
          -210 37 173 50 callsubr
          85 -21 119 -20 197 callgsubr
          hintmask 0000000000000100
          231 callsubr
          hintmask 0000000000010000
          47 callgsubr
          hintmask 0110001100100100
          -50 callgsubr
          -40 -7 0 -15 99 callgsubr
          15 3 hvcurveto
          14 87 rlineto
          15 3 0 17 -19 hhcurveto
          hintmask 0111001101000010
          -19 -6 -15 -41 -7 hvcurveto
          -94 hlineto
          39 234 rlineto
          173 hlineto
          -10 -61 rlineto
          -15 -2 140 callgsubr
          98 callsubr
          168 callgsubr
          -254 -89 callsubr
          hintmask 1100000000100000
          215 hlineto
          -53 -43 -22 -33 -7 -45 69 callgsubr
          3 4 0 9 -4 5 rrcurveto
          hintmask 1100000010010000
          152 callgsubr
          hintmask 0000000000001000
          34 callgsubr
          hintmask 0000110000000000
          30 737 -104 callsubr
        </CharString>
        <CharString name="Epsilon">
          61 callgsubr
          27 callgsubr
          hintmask 1111110110000000
          -106 callgsubr
          hintmask 0000001000000000
          258 callsubr
        </CharString>
        <CharString name="Ereversed">
          61 callgsubr
          hstemhm
          34 45 36 45 -34 44 -10 44 6 45 0 45 -2 45 0 45 hintmask 1010001010100000
          343 -30 callsubr
          -19 hlineto
          88 531 rlineto
          19 -68 callsubr
          -254 hlineto
          hintmask 0000010000000000
          -20 -9 -6 -27 -5 hvcurveto
          hintmask 0000100000000000
          -11 -68 rlineto
          -16 -3 2 -16 99 callgsubr
          15 2 hvcurveto
          hintmask 0110010100100000
          10 61 rlineto
          173 hlineto
          176 callsubr
          -94 hlineto
          41 7 0 15 -19 hhcurveto
          -19 -6 -17 -15 -3 hvcurveto
          -14 -87 rlineto
          -15 -3 212 callgsubr
          hintmask 1101001101000000
          19 6 15 40 7 hvcurveto
          94 hlineto
          -43 -257 rlineto
          -188 hlineto
          12 76 rlineto
          16 3 -1 17 -19 hhcurveto
          -18 -7 -18 -15 -3 hvcurveto
          -13 -83 rlineto
          -28 -5 7 -5 20 hhcurveto
          269 117 callgsubr
        </CharString>
        <CharString name="Eta">
          206 callsubr
          178 callgsubr
          hintmask 1000000100000000
          341 -30 callsubr
          -16 hlineto
          hintmask 1111100010000000
          -83 callgsubr
          hintmask 0100001000000000
          150 hlineto
          hintmask 1000010000000000
          -10 callgsubr
          endchar
        </CharString>
        <CharString name="Eth">
          -11 callgsubr
        </CharString>
        <CharString name="Etilde">
          0 40 257 40 234 40 54 43 -23 43 -25 43 -23 43 27 callgsubr
          hintmask 1110000111011000
          -106 callgsubr
          hintmask 0000000000100000
          34 callgsubr
          hintmask 0001001000010000
          72 713 -25 callsubr
        </CharString>
        <CharString name="Euro">
          -12 40 194 40 88 40 193 40 hstemhm
          126 44 66 44 -5 44 -30 44 -22 44 -27 44 -17 44 -27 44 hintmask 0000001000000000
          316 4 rmoveto
          18 107 rlineto
          11 1 -9 5 -7 hhcurveto
          -10 hlineto
          hintmask 1110100100000000
          -9 -8 -10 -11 -3 hvcurveto
          -43 -11 -27 -35 -28 hhcurveto
          -30 -16 35 38 -9 hvcurveto
          -8 31 -2 35 2 55 rrcurveto
          109 hlineto
          7 7 7 9 3 hvcurveto
          5 14 rlineto
          8 2 -9 2 -6 hhcurveto
          -114 hlineto
          1 16 3 14 2 14 2 14 3 14 3 16 rrcurveto
          hintmask 0010000010000000
          133 hlineto
          hintmask 0000000001000000
          7 8 7 9 2 hvcurveto
          hintmask 0011010100100000
          5 14 rlineto
          8 3 -11 2 -5 hhcurveto
          -132 hlineto
          16 54 14 35 18 31 rrcurveto
          38 21 28 35 30 hhcurveto
          28 15 -35 -43 -3 hvcurveto
          -11 -1 6 -10 9 hhcurveto
          10 hlineto
          76 callgsubr
          hintmask 0001000000010000
          18 107 rlineto
          11 2 -9 5 -7 hhcurveto
          hintmask 0001000000100000
          -3 hlineto
          -6 -6 -4 -6 -5 hvcurveto
          hintmask 1111101000010000
          -10 -16 rlineto
          16 -14 -20 10 -22 hhcurveto
          -43 -43 -45 -56 -31 hvcurveto
          -23 -41 -17 -44 -14 -47 rrcurveto
          -27 hlineto
          -7 -7 -8 -9 -4 hvcurveto
          -4 -14 rlineto
          -8 -2 9 -1 6 hhcurveto
          26 hlineto
          -6 -26 -1 -9 -2 -9 -1 -9 -2 -9 -2 -26 rrcurveto
          -24 hlineto
          -7 -8 -8 -9 -3 hvcurveto
          -4 -14 rlineto
          -8 -3 10 -1 6 hhcurveto
          29 hlineto
          -2 -48 3 -44 9 -41 rrcurveto
          -56 13 27 -45 43 hhcurveto
          22 24 10 18 19 hvcurveto
          hintmask 1000010000000000
          5 -17 rlineto
          -7 3 4 -4 6 hhcurveto
          3 hlineto
          7 11 5 11 2 hvcurveto
          endchar
        </CharString>
        <CharString name="F">
          0 87 callgsubr
          hstem
          74 89 callgsubr
          cntrmask 00011100
          416 510 rmoveto
          98 callsubr
          168 callgsubr
          -258 19 callgsubr
          -88 -531 rlineto
          -22 -101 callsubr
          100 -46 callsubr
          -34 hlineto
          235 callgsubr
          97 hlineto
          -41 -7 0 -15 99 callgsubr
          16 3 hvcurveto
          14 86 rlineto
          16 3 0 17 -19 hhcurveto
          -19 -6 -15 -41 -7 hvcurveto
          -97 hlineto
          41 245 rlineto
          175 hlineto
          -10 -61 243 callgsubr
          endchar
        </CharString>
        <CharString name="G">
          153 callgsubr
          139 callsubr
          hintmask 11111000
          -57 callgsubr
          hintmask 00100010
          -33 callsubr
          hintmask 10110100
          -47 callgsubr
          hintmask 01001000
          32 190 rlineto
          hintmask 00000010
          162 callsubr
          endchar
        </CharString>
        <CharString name="Gacute">
          153 callgsubr
          73 -21 119 265 callgsubr
          hintmask 1110011000000000
          -57 callgsubr
          hintmask 0010000010000000
          -33 callsubr
          hintmask 1010010100000000
          -47 callgsubr
          hintmask 0100001000000000
          32 190 rlineto
          hintmask 0000000010000000
          162 callsubr
          hintmask 0001100000000000
          1 531 -104 callsubr
        </CharString>
        <CharString name="Gamma">
          170 callgsubr
          415 510 rmoveto
          40 callgsubr
          -256 31 callsubr
          -88 -531 223 callgsubr
          105 hlineto
          9 19 -9 callgsubr
          -9 hhcurveto
          -37 216 callgsubr
          171 hlineto
          164 callsubr
          0 -17 18 hhcurveto
          20 5 16 16 3 hvcurveto
          endchar
        </CharString>
        <CharString name="Gbreve">
          153 callgsubr
          52 42 54 265 callgsubr
          hintmask 1110011000000000
          -57 callgsubr
          hintmask 0010000010000000
          -33 callsubr
          hintmask 1010010100000000
          -47 callgsubr
          hintmask 0100001000000000
          32 190 rlineto
          hintmask 0000000010000000
          162 callsubr
          hintmask 0001100000000000
          45 510 -87 callgsubr
          endchar
        </CharString>
        <CharString name="Gcaron">
          153 callgsubr
          123 265 callgsubr
          hintmask 11101100
          -57 callgsubr
          hintmask 00100001
          -33 callsubr
          hintmask 10101010
          -47 callgsubr
          hintmask 01000100
          32 190 rlineto
          hintmask 00000001
          162 callsubr
          hintmask 00010000
          18 490 -97 callsubr
        </CharString>
        <CharString name="Gcedilla">
          91 callgsubr
          45 181 callgsubr
          hstemhm
          72 44 -17 69 127 45 -32 44 -21 44 hintmask 0011110100000000
          -57 callgsubr
          hintmask 0000100001000000
          -33 callsubr
          hintmask 0010110010000000
          -47 callgsubr
          hintmask 0001000100000000
          32 190 rlineto
          hintmask 1100001001000000
          162 callsubr
          -179 -359 -85 callgsubr
        </CharString>
        <CharString name="Gcircumflex">
          153 callgsubr
          64 -21 139 callsubr
          hintmask 11101100
          -57 callgsubr
          hintmask 00100001
          -33 callsubr
          hintmask 10101010
          -47 callgsubr
          hintmask 01000100
          32 190 rlineto
          hintmask 00000001
          162 callsubr
          hintmask 00010000
          11 444 -104 callgsubr
          endchar
        </CharString>
        <CharString name="Gcommaaccent">
          91 callgsubr
          45 181 callgsubr
          hstemhm
          72 44 -17 69 127 45 -32 44 -21 44 hintmask 0011110100000000
          -57 callgsubr
          hintmask 0000100001000000
          -33 callsubr
          hintmask 0010110010000000
          -47 callgsubr
          hintmask 0001000100000000
          32 190 rlineto
          hintmask 0000000001000000
          162 callsubr
          hintmask 1100001000000000
          -179 -359 -85 callgsubr
        </CharString>
        <CharString name="Gdotaccent">
          153 callgsubr
          54 74 hstemhm
          72 44 147 62 -30 45 -32 44 -21 44 hintmask 1110101000000000
          -57 callgsubr
          hintmask 0010000010000000
          -33 callsubr
          hintmask 1010100100000000
          -47 callgsubr
          hintmask 0100001000000000
          32 190 rlineto
          hintmask 0000000010000000
          162 callsubr
          hintmask 0001010000000000
          -50 475 -71 callsubr
        </CharString>
        <CharString name="H">
          206 callsubr
          hstem
          257 89 callgsubr
          cntrmask 00011100
          341 -30 callsubr
          -16 hlineto
          -83 callgsubr
          150 hlineto
          -10 callgsubr
          endchar
        </CharString>
        <CharString name="H_uni0303">
          0 40 258 41 232 40 54 43 -23 43 -25 43 -23 43 178 callgsubr
          hintmask 1000000000010000
          341 -30 callsubr
          -16 hlineto
          hintmask 1110000110001000
          -83 callgsubr
          hintmask 0100000000100000
          150 hlineto
          hintmask 1000000001000000
          -10 callgsubr
          hintmask 0001001000001000
          77 726 -25 callsubr
        </CharString>
        <CharString name="Hbar">
          0 40 258 41 104 40 88 40 hstem
          257 89 callgsubr
          cntrmask 00001110
          341 -30 callsubr
          -16 hlineto
          67 403 rlineto
          22 hlineto
          209 callsubr
          13 2 -9 7 -9 hhcurveto
          -22 hlineto
          14 88 49 callsubr
          -76 -105 callgsubr
          16 hlineto
          -14 -88 rlineto
          -150 127 callgsubr
          -14 -88 rlineto
          -21 hlineto
          -9 -13 240 callsubr
          232 callsubr
          21 hlineto
          -67 -403 rlineto
          -16 -70 callsubr
          -40 callsubr
          239 callsubr
          150 hlineto
          -10 callgsubr
          -34 319 rmoveto
          -150 hlineto
          17 104 rlineto
          150 hlineto
          endchar
        </CharString>
        <CharString name="Hbrevebelow">
          -217 42 54 -20 141 141 callsubr
          178 callgsubr
          hintmask 0010000001000000
          341 -30 callsubr
          -16 hlineto
          hintmask 0011111000100000
          -83 callgsubr
          hintmask 0001000010000000
          150 hlineto
          hintmask 0010000100000000
          -10 callgsubr
          hintmask 1100000000000000
          -70 -163 7 callsubr
        </CharString>
        <CharString name="Hcircumflex">
          206 callsubr
          76 -21 178 callgsubr
          hintmask 1000000010000000
          341 -30 callsubr
          -16 hlineto
          hintmask 1110110001000000
          -83 callgsubr
          hintmask 0100000100000000
          150 hlineto
          hintmask 1000001000000000
          -10 callgsubr
          hintmask 0001000000000000
          45 663 -104 callgsubr
          endchar
        </CharString>
        <CharString name="Hdieresis">
          206 callsubr
          54 64 hstemhm
          62 45 43 45 7 56 -1 44 -1 45 -44 44 -20 56 -36 44 hintmask 1000000001000000
          341 -30 callsubr
          -16 hlineto
          hintmask 1110110000010000
          -83 callgsubr
          hintmask 0100000010000000
          150 hlineto
          hintmask 1000000100000000
          -10 callgsubr
          hintmask 0001001000100000
          -83 677 -73 callsubr
        </CharString>
        <CharString name="Hdotbelow">
          -206 73 133 141 callsubr
          hstemhm
          62 45 9 62 -28 160 callsubr
          hintmask 0100000001000000
          341 -30 callsubr
          -16 hlineto
          hintmask 0111101000100000
          88 531 49 callsubr
          -76 -105 callgsubr
          16 hlineto
          -38 -232 rlineto
          -150 hlineto
          38 232 -45 callgsubr
          hintmask 0100110000000000
          -40 callsubr
          hintmask 0010001010000000
          239 callsubr
          150 hlineto
          hintmask 0100000100000000
          -10 callgsubr
          hintmask 1000010000000000
          -163 -190 -99 callgsubr
          endchar
        </CharString>
        <CharString name="I">
          3 callgsubr
          hstem
          160 229 callsubr
          300 -78 callgsubr
          -73 hlineto
          -93 callgsubr
          endchar
        </CharString>
        <CharString name="Iacute">
          107 callsubr
          160 44 0 44 0 44 hintmask 10000100
          300 -78 callgsubr
          -73 hlineto
          hintmask 11001010
          -93 callgsubr
          hintmask 00110000
          76 750 -104 callsubr
        </CharString>
        <CharString name="Ibreve">
          3 callgsubr
          64 42 54 187 callgsubr
          hintmask 10000100
          300 -78 callgsubr
          -73 hlineto
          hintmask 11001010
          -93 callgsubr
          hintmask 00110000
          120 729 -87 callgsubr
          endchar
        </CharString>
        <CharString name="Icaron">
          0 40 531 40 135 187 callgsubr
          hintmask 10001000
          300 -78 callgsubr
          -73 hlineto
          hintmask 11010100
          -93 callgsubr
          hintmask 00100000
          93 709 -97 callsubr
        </CharString>
        <CharString name="Icircumflex">
          3 callgsubr
          76 -21 94 callsubr
          hintmask 10001000
          300 -78 callgsubr
          -73 hlineto
          hintmask 11010100
          -93 callgsubr
          hintmask 00101000
          86 663 -104 callgsubr
          endchar
        </CharString>
        <CharString name="Idblgrave">
          3 callgsubr
          86 -21 121 187 callgsubr
          hintmask 10000100
          300 -78 callgsubr
          -73 hlineto
          hintmask 11001010
          -93 callgsubr
          hintmask 00110000
          -25 679 rmoveto
          2 -94 callsubr
          9 -2 5 67 callsubr
          2 15 rrcurveto
          133 hmoveto
          2 -94 callsubr
          9 -2 5 67 callsubr
          2 15 rrcurveto
          endchar
        </CharString>
        <CharString name="Idieresis">
          233 callgsubr
          64 hstemhm
          160 44 -2 56 -54 44 0 44 33 56 hintmask 10000100
          300 -78 callgsubr
          -73 hlineto
          hintmask 11010010
          -93 callgsubr
          hintmask 00101001
          -42 677 -73 callsubr
        </CharString>
        <CharString name="Idieresisacute">
          233 callgsubr
          64 84 91 callsubr
          160 44 -2 56 -54 44 0 44 33 56 hintmask 1000000100000000
          300 -78 callgsubr
          -73 hlineto
          hintmask 1100010010000000
          -93 callgsubr
          hintmask 0011101001000000
          -42 677 -95 callsubr
          15 190 -104 callsubr
        </CharString>
        <CharString name="Idotaccent">
          3 callgsubr
          66 74 94 callsubr
          -29 62 hintmask 10001000
          300 -78 callgsubr
          -73 hlineto
          hintmask 11010100
          -93 callgsubr
          hintmask 00100010
          25 694 -71 callsubr
        </CharString>
        <CharString name="Idotbelow">
          70 callgsubr
          276 callsubr
          -18 89 callgsubr
          hintmask 01000100
          300 -78 callgsubr
          -73 hlineto
          hintmask 01101010
          -93 callgsubr
          hintmask 10010000
          -122 -190 -99 callgsubr
          endchar
        </CharString>
        <CharString name="Igrave">
          107 callsubr
          160 44 0 44 0 44 hintmask 10000100
          300 -78 callgsubr
          -73 hlineto
          hintmask 11001010
          -93 callgsubr
          hintmask 00110000
          64 682 -83 callsubr
        </CharString>
        <CharString name="Ihookabove">
          3 callgsubr
          87 143 callgsubr
          160 44 0 44 -3 36 -33 44 -25 35 -31 121 callsubr
          -17 34 -22 35 -4 34 hintmask 1000010000000000
          300 -78 callgsubr
          -73 hlineto
          hintmask 1100100100000000
          -93 callgsubr
          hintmask 0001001000010000
          79 804 17 callsubr
        </CharString>
        <CharString name="Imacron">
          3 callgsubr
          74 41 94 callsubr
          hintmask 10001000
          300 -78 callgsubr
          -73 hlineto
          hintmask 11010100
          -93 callgsubr
          hintmask 00100000
          122 685 rmoveto
          21 4 -65 callsubr
          3 hvcurveto
          endchar
        </CharString>
        <CharString name="Imacron.alt">
          3 callgsubr
          74 41 94 callsubr
          hintmask 10001000
          300 -78 callgsubr
          -73 hlineto
          hintmask 11010100
          -93 callgsubr
          hintmask 00100000
          64 685 137 callgsubr
        </CharString>
        <CharString name="Iogonek">
          -210 37 173 65 callsubr
          hstem
          130 46 48 46 vstem
          11 callsubr
          endchar
        </CharString>
        <CharString name="Iogonekacute">
          -210 37 173 65 callsubr
          85 91 callsubr
          130 46 48 46 hintmask 11100110
          11 callsubr
          hintmask 00011000
          76 750 -104 callsubr
        </CharString>
        <CharString name="Iota">
          0 40 531 40 94 callsubr
          hintmask 10010000
          300 -78 callgsubr
          -73 hlineto
          hintmask 11101000
          -93 callgsubr
          endchar
        </CharString>
        <CharString name="Itilde">
          96 callsubr
          160 44 0 44 0 44 hintmask 1000000100000000
          300 -78 callgsubr
          -73 hlineto
          hintmask 1100001010000000
          -93 callgsubr
          hintmask 0010010000000000
          118 726 -90 callsubr
        </CharString>
        <CharString name="J">
          268 callgsubr
          hstem
          325 45 vstem
          -40 callgsubr
          endchar
        </CharString>
        <CharString name="J_uni030C.cap">
          -12 40 67 40 322 -21 107 68 -40 40 hstemhm
          325 45 54 69 hintmask 11001100
          -40 callgsubr
          100 -43 130 callgsubr
          hintmask 00110010
          33 callsubr
        </CharString>
        <CharString name="Jacute">
          268 callgsubr
          85 91 callsubr
          325 45 hintmask 11100100
          -40 callgsubr
          hintmask 00011000
          15 179 -104 callsubr
        </CharString>
        <CharString name="Jcircumflex">
          268 callgsubr
          76 -21 hstemhm
          325 45 hintmask 11101000
          -40 callgsubr
          hintmask 00010000
          25 92 -104 callgsubr
          endchar
        </CharString>
        <CharString name="K">
          3 callgsubr
          hstem
          60 41 47 41 vstem
          -70 callgsubr
          endchar
        </CharString>
        <CharString name="Kappa">
          3 callgsubr
          hstem
          60 41 47 41 vstem
          -70 callgsubr
          endchar
        </CharString>
        <CharString name="Kcedilla">
          62 callsubr
          60 41 -2 69 -20 41 hintmask 01111010
          -70 callgsubr
          -141 113 callsubr
          hintmask 10000100
          -34 callsubr
          -1 -4 rcurveline
          -8 -2 9 -6 6 hhcurveto
          13 59 33 79 13 hvcurveto
          endchar
        </CharString>
        <CharString name="Kcommaaccent">
          62 callsubr
          60 41 -2 69 -20 41 hintmask 00111010
          -70 callgsubr
          hintmask 11000100
          -141 -140 -85 callgsubr
        </CharString>
        <CharString name="L">
          170 callgsubr
          -72 callgsubr
          -23 callgsubr
          endchar
        </CharString>
        <CharString name="L_uni0303">
          96 callsubr
          78 44 0 44 44 44 52 44 hintmask 1100000111000000
          -72 callgsubr
          hintmask 1000001000000000
          -23 callgsubr
          hintmask 0010010000000000
          9 713 -90 callsubr
        </CharString>
        <CharString name="Lacute">
          107 callsubr
          78 44 0 44 44 44 52 44 hintmask 11000111
          -72 callgsubr
          hintmask 10001000
          -23 callgsubr
          hintmask 00110000
          -33 737 -104 callsubr
        </CharString>
        <CharString name="Lambda">
          0 40 585 -20 hstem
          337 -38 callsubr
          -18 0 -18 hhcurveto
          4 548 rlineto
          37 -13 0 -17 -26 -6 -8 -29 -10 vhcurveto
          -178 -548 rlineto
          -19 -34 callgsubr
          70 -46 callsubr
          -17 hlineto
          165 519 rlineto
          1 hlineto
          -8 -519 rlineto
          -17 hlineto
          -9 -19 -1 callgsubr
          70 -81 callgsubr
          endchar
        </CharString>
        <CharString name="Lcaron">
          0 40 417 -21 107 68 -40 40 hstemhm
          78 44 0 44 44 44 41 69 -58 44 hintmask 1001011010000000
          -72 callgsubr
          hintmask 1001100000000000
          -23 callgsubr
          56 515 130 callgsubr
          hintmask 0110000100000000
          33 callsubr
        </CharString>
        <CharString name="Lcedilla">
          62 callsubr
          78 44 -23 69 -46 89 callgsubr
          52 44 hintmask 0011001011000000
          -72 callgsubr
          hintmask 0110100100000000
          -23 callgsubr
          -140 -153 -66 callgsubr
          hintmask 1000010000000000
          -34 callsubr
          -1 -4 rcurveline
          -8 -2 9 -6 6 hhcurveto
          13 59 33 79 13 hvcurveto
          endchar
        </CharString>
        <CharString name="Lcommaaccent">
          62 callsubr
          78 44 -23 69 -46 89 callgsubr
          52 44 hintmask 0011001011000000
          -72 callgsubr
          hintmask 0010100000000000
          -23 callgsubr
          hintmask 0100000100000000
          -140 -153 -66 callgsubr
          hintmask 1000010000000000
          -34 callsubr
          -1 -4 rcurveline
          -8 -2 9 -6 6 hhcurveto
          13 59 33 79 13 hvcurveto
          endchar
        </CharString>
        <CharString name="Ldot">
          0 40 241 74 216 40 hstemhm
          78 44 0 44 44 44 36 62 -46 44 hintmask 10101101
          -72 callgsubr
          hintmask 11010010
          -23 callgsubr
          16 285 -71 callsubr
        </CharString>
        <CharString name="Ldotbelow">
          70 callgsubr
          hstemhm
          78 44 -6 62 -56 44 44 44 52 44 hintmask 01100111
          -72 callgsubr
          hintmask 01010000
          -23 callgsubr
          hintmask 10001000
          -158 -203 -99 callgsubr
          endchar
        </CharString>
        <CharString name="Ldotbelowmacron">
          70 callgsubr
          74 41 hstemhm
          78 44 -6 62 -56 44 44 44 52 44 hintmask 0110001110000000
          -72 callgsubr
          hintmask 1100100000000000
          -23 callgsubr
          -158 -203 rmoveto
          -18 callsubr
          hintmask 1000010000000000
          -91 callgsubr
          hintmask 0001000000000000
          169 875 rmoveto
          21 4 -65 callsubr
          3 hvcurveto
          endchar
        </CharString>
        <CharString name="Lslash">
          170 callgsubr
          336 33 rmoveto
          14 84 rlineto
          14 2 0 18 -19 hhcurveto
          -19 -6 -17 -15 -2 hvcurveto
          -13 -77 rlineto
          -171 hlineto
          46 277 169 142 7 6 4 4 2 8 rlinecurve
          3 20 -22 4 -12 -10 -142 -121 rcurveline
          33 201 rlineto
          37 hlineto
          9 19 39 callsubr
          -105 31 callsubr
          -40 -243 -58 -52 -6 -5 -3 -5 -1 -8 rlinecurve
          -2 -15 17 -9 13 12 31 28 rcurveline
          -39 -234 -13 callgsubr
          endchar
        </CharString>
        <CharString name="M">
          -6 callsubr
        </CharString>
        <CharString name="Mdotbelow">
          70 callgsubr
          hstemhm
          50 38 -38 39 27 62 -41 39 -38 38 100 38 hintmask 0110001010000000
          346 -38 callsubr
          -20 0 -16 hhcurveto
          118 callgsubr
          16 199 callsubr
          -37 hlineto
          -27 -12 -12 -27 -11 hvcurveto
          -108 -292 -11 307 rlineto
          24 -4 -20 0 -12 hhcurveto
          -37 hlineto
          -8 -20 0 -20 -3 hvcurveto
          hintmask 0111000100000000
          -20 -4 19 0 17 hhcurveto
          -88 -531 113 callgsubr
          hintmask 0100100110000000
          20 4 -20 0 -15 hhcurveto
          87 521 10 -314 rlineto
          -8 4 -28 20 8 16 8 18 9 vhcurveto
          119 322 -86 -519 113 callgsubr
          hintmask 1000010000000000
          -168 -190 -99 callgsubr
          endchar
        </CharString>
        <CharString name="Mu">
          -6 callsubr
        </CharString>
        <CharString name="N">
          174 callsubr
          66 39 0 39 204 38 hintmask 11101000
          -86 callsubr
          hintmask 11011000
          -59 callsubr
          endchar
        </CharString>
        <CharString name="Nacute">
          107 callsubr
          66 39 0 39 204 38 hintmask 11001010
          -86 callsubr
          hintmask 11000110
          -59 callsubr
          hintmask 00110000
          -57 179 -104 callsubr
        </CharString>
        <CharString name="Ncaron">
          227 callsubr
          66 39 0 39 204 38 hintmask 11010100
          -86 callsubr
          hintmask 11001100
          -59 callsubr
          hintmask 00100000
          -40 138 -97 callsubr
        </CharString>
        <CharString name="Ncedilla">
          62 callsubr
          66 39 -6 69 -63 39 204 38 hintmask 00111001
          -86 callsubr
          hintmask 01110011
          -59 callsubr
          -237 -711 -66 callgsubr
          hintmask 10000100
          -34 callsubr
          -1 -4 rcurveline
          -8 -2 9 -6 6 hhcurveto
          13 59 33 79 13 hvcurveto
          endchar
        </CharString>
        <CharString name="Ncommaaccent">
          62 callsubr
          66 39 -6 69 -63 39 204 38 hintmask 00111001
          -86 callsubr
          hintmask 00110011
          -59 callsubr
          hintmask 11000100
          -237 -711 -85 callgsubr
        </CharString>
        <CharString name="Ndotaccent">
          233 callgsubr
          74 hstemhm
          66 39 0 39 117 62 25 38 hintmask 11010010
          -86 callsubr
          hintmask 11001010
          -59 callsubr
          hintmask 00100100
          -110 111 -71 callsubr
        </CharString>
        <CharString name="Ndotbelow">
          70 callgsubr
          hstemhm
          66 39 0 39 -28 62 170 38 hintmask 01110010
          -86 callsubr
          hintmask 01101010
          -59 callsubr
          hintmask 10000100
          -255 -761 -99 callgsubr
          endchar
        </CharString>
        <CharString name="Ntilde">
          96 callsubr
          66 39 0 39 204 38 hintmask 1100001010000000
          -86 callsubr
          hintmask 1100000110000000
          -59 callsubr
          hintmask 0010010000000000
          -15 155 -90 callsubr
        </CharString>
        <CharString name="Nu">
          174 callsubr
          66 39 0 39 204 38 hintmask 11101000
          -86 callsubr
          hintmask 11011000
          -59 callsubr
          endchar
        </CharString>
        <CharString name="O">
          77 callsubr
          93 callsubr
          hintmask 11110000
          -96 callgsubr
          hintmask 11101000
          -100 callsubr
          endchar
        </CharString>
        <CharString name="OE">
          -31 callgsubr
        </CharString>
        <CharString name="OE.dup">
          -31 callgsubr
        </CharString>
        <CharString name="Oacute">
          261 callgsubr
          85 45 149 44 0 44 hintmask 11001100
          -96 callgsubr
          hintmask 11001010
          -100 callsubr
          hintmask 00110000
          53 456 -104 callsubr
        </CharString>
        <CharString name="Obreve">
          77 callsubr
          52 42 54 131 callsubr
          hintmask 11001100
          -96 callgsubr
          hintmask 11001010
          -100 callsubr
          hintmask 00110000
          97 435 -87 callgsubr
          endchar
        </CharString>
        <CharString name="Ocaron">
          77 callsubr
          123 131 callsubr
          hintmask 11011000
          -96 callgsubr
          hintmask 11010100
          -100 callsubr
          hintmask 00100000
          70 415 -97 callsubr
        </CharString>
        <CharString name="Ocircumflex">
          202 callgsubr
          93 callsubr
          hintmask 11011000
          -96 callgsubr
          hintmask 11010100
          -100 callsubr
          hintmask 00100000
          63 369 -104 callgsubr
          endchar
        </CharString>
        <CharString name="Ocircumflexacute">
          202 callgsubr
          219 131 callsubr
          hintmask 11001100
          -96 callgsubr
          hintmask 11001010
          -100 callsubr
          hintmask 00110000
          63 369 -104 callgsubr
          5 178 -67 callgsubr
          -87 -58 -8 140 callsubr
          -2 6 -12 14 hhcurveto
          4 7 3 3 5 268 callsubr
          1 9 rlinecurve
          endchar
        </CharString>
        <CharString name="Ocircumflexdotbelow">
          188 callgsubr
          64 -21 hstemhm
          85 45 -14 62 101 44 0 44 hintmask 01101010
          -96 callgsubr
          hintmask 01111001
          -100 callsubr
          63 369 -104 callgsubr
          hintmask 10000100
          -208 -853 -99 callgsubr
          endchar
        </CharString>
        <CharString name="Ocircumflexgrave">
          202 callgsubr
          93 callsubr
          hintmask 11011000
          -96 callgsubr
          hintmask 11010100
          -100 callsubr
          hintmask 00100000
          63 369 -104 callgsubr
          -6 110 43 callgsubr
          1 9 rlinecurve
          14 3 10 10 11 hhcurveto
          9 9 -6 -7 9 103 callgsubr
        </CharString>
        <CharString name="Ocircumflexhookabove">
          77 callsubr
          46 142 callgsubr
          85 45 149 44 -10 36 -26 44 -43 190 callgsubr
          36 -24 36 -18 34 -22 36 -4 34 hintmask 110001100000000000000000
          -96 callgsubr
          hintmask 110001001000000000000000
          26 43 17 79 24 144 rrcurveto
          -44 9 rmoveto
          -11 -67 -14 -83 -17 -58 rrcurveto
          -53 -16 -20 -25 -65 hhcurveto
          -64 -12 25 48 1 hvcurveto
          -1 54 16 98 10 61 12 70 13 77 16 51 rrcurveto
          57 20 23 14 58 hhcurveto
          hintmask 000000100001000000000000
          -23 callsubr
          hintmask 001000010000001000000000
          63 369 rmoveto
          1 5 0 10 -7 4 -67 40 rcurveline
          -10 6 -6 0 -12 -6 -81 -40 rcurveline
          -9 -4 -2 89 callsubr
          hintmask 000100000000000000000000
          -8 -2 3 -9 11 hhcurveto
          hintmask 001000000000100000000000
          5 4 -1 4 9 hvcurveto
          69 29 59 -29 rlineto
          hintmask 000100000000100000000000
          109 callgsubr
          hintmask 000010000100010000000000
          49 callgsubr
          hintmask 000010000000000100000000
          208 callsubr
          hintmask 000000010000001010000000
          124 callgsubr
          hintmask 000000000010000000000000
          -3 -19 rlineto
          64 callsubr
          hintmask 000000000001000100000000
          131 callgsubr
          hintmask 000000000000000010000000
          147 callsubr
        </CharString>
        <CharString name="Ocircumflextilde">
          -12 40 555 40 64 198 callsubr
          85 45 149 44 0 44 hintmask 1100000110000000
          -96 callgsubr
          hintmask 1100000101000000
          -100 callsubr
          hintmask 0011001000000000
          63 369 -104 callgsubr
          53 184 10 callgsubr
          39 234 callgsubr
          -6 -8 3 hvcurveto
          -32 14 11 -12 19 hhcurveto
          hintmask 0000100000000000
          5 callsubr
          hintmask 0000010000000000
          219 callsubr
        </CharString>
        <CharString name="Odblgrave">
          77 callsubr
          74 -21 121 131 callsubr
          hintmask 11001100
          -96 callgsubr
          hintmask 11001010
          -100 callsubr
          hintmask 00110000
          -48 385 rmoveto
          2 -94 callsubr
          9 -2 5 67 callsubr
          2 15 rrcurveto
          133 hmoveto
          2 -94 callsubr
          9 -2 5 67 callsubr
          2 15 rrcurveto
          endchar
        </CharString>
        <CharString name="Odieresis">
          77 callsubr
          42 64 hstemhm
          85 45 72 56 21 44 0 44 -42 56 hintmask 11010100
          -96 callgsubr
          hintmask 11010010
          -100 callsubr
          hintmask 00101001
          -65 383 -73 callsubr
        </CharString>
        <CharString name="Odotbelow">
          188 callgsubr
          hstemhm
          85 45 -14 62 101 44 0 44 hintmask 01110100
          -96 callgsubr
          hintmask 01110010
          -100 callsubr
          hintmask 10001000
          -145 -484 -99 callgsubr
          endchar
        </CharString>
        <CharString name="Ograve">
          261 callgsubr
          85 45 149 44 0 44 hintmask 11001100
          -96 callgsubr
          hintmask 11001010
          -100 callsubr
          hintmask 00110010
          41 388 -83 callsubr
        </CharString>
        <CharString name="Ohookabove">
          77 callsubr
          75 143 callgsubr
          85 45 115 36 -14 35 -31 35 -27 44 -40 36 -35 35 -17 34 -22 35 -26 44 -22 34 hintmask 1100100010000000
          -96 callgsubr
          hintmask 1100110000000100
          26 43 17 79 24 144 rrcurveto
          -44 9 rmoveto
          -11 -67 -14 -83 -17 -58 rrcurveto
          -53 -16 -20 -25 -65 hhcurveto
          -64 -12 25 48 1 hvcurveto
          -1 54 16 98 10 61 12 70 13 77 16 51 rrcurveto
          57 20 23 14 58 hhcurveto
          hintmask 0000000000001000
          55 21 -12 -55 1 hvcurveto
          hintmask 0000000000000100
          -51 -15 -85 -11 -66 vhcurveto
          hintmask 0001010000100000
          56 510 rmoveto
          -80 callsubr
          hintmask 0001000000001000
          52 callsubr
          hintmask 0000000000010010
          -37 callgsubr
          hintmask 0000000100000000
          51 callsubr
          hintmask 0000001000000000
          253 callgsubr
          hintmask 0000001000000000
          76 callgsubr
          hintmask 0000000100001000
          4 194 callgsubr
        </CharString>
        <CharString name="Ohorn">
          77 callsubr
          81 -20 hstem
          -88 callsubr
          43 callsubr
          endchar
        </CharString>
        <CharString name="Ohornacute">
          77 callsubr
          73 -21 29 -20 110 -20 hstemhm
          hintmask 11010000
          -88 callsubr
          43 callsubr
          hintmask 00101000
          33 452 -104 callsubr
        </CharString>
        <CharString name="Ohorndotbelow">
          188 callgsubr
          81 -20 276 callsubr
          hintmask 01110000
          -88 callsubr
          43 callsubr
          hintmask 10001000
          -146 -488 -99 callgsubr
          endchar
        </CharString>
        <CharString name="Ohorngrave">
          77 callsubr
          73 -21 29 -20 110 -20 hstemhm
          hintmask 11010000
          -88 callsubr
          43 callsubr
          hintmask 00101000
          21 384 -83 callsubr
        </CharString>
        <CharString name="Ohornhookabove">
          77 callsubr
          75 -21 27 -20 180 33 hstemhm
          245 12 callsubr
          -4 34 hintmask 1101001000000000
          -88 callsubr
          hintmask 0100000100001000
          43 callsubr
          hintmask 0000110001000000
          55 506 rmoveto
          -80 callsubr
          hintmask 0000100000010000
          52 callsubr
          hintmask 0000000000101000
          -37 callgsubr
          hintmask 0000000100000000
          51 callsubr
          hintmask 0000001000000000
          -4 -19 rlineto
          hintmask 0010000010000000
          79 callsubr
          hintmask 0000001000000000
          76 callgsubr
          hintmask 0000000100010000
          4 8 callsubr
          hintmask 0000000000001000
          8 callgsubr
        </CharString>
        <CharString name="Ohorntilde">
          77 callsubr
          42 27 callsubr
          hintmask 11000000
          -88 callsubr
          43 callsubr
          hintmask 00100100
          75 428 -87 callsubr
          hintmask 00001000
          60 callgsubr
          hintmask 00010000
          19 callsubr
          hintmask 00100100
          -62 callgsubr
          hintmask 00010000
          5 callsubr
          hintmask 00001000
          61 callsubr
        </CharString>
        <CharString name="Ohungarumlaut">
          77 callsubr
          74 -21 121 131 callsubr
          hintmask 11001100
          -96 callgsubr
          hintmask 11001010
          -100 callsubr
          hintmask 00110000
          99 461 rmoveto
          -27 callsubr
          -133 hmoveto
          -27 callsubr
          endchar
        </CharString>
        <CharString name="Omacron">
          77 callsubr
          62 41 93 callsubr
          hintmask 11011000
          -96 callgsubr
          hintmask 11010100
          -100 callsubr
          hintmask 00100000
          99 391 rmoveto
          21 4 -65 callsubr
          3 hvcurveto
          endchar
        </CharString>
        <CharString name="Omega">
          -13 callsubr
        </CharString>
        <CharString name="Omicron">
          77 callsubr
          93 callsubr
          hintmask 11110000
          -96 callgsubr
          hintmask 11101000
          -100 callsubr
          endchar
        </CharString>
        <CharString name="Oogonek">
          -210 37 161 104 callgsubr
          hstemhm
          85 45 -25 44 9 44 77 44 0 44 hintmask 01110010
          78 callsubr
          -45 -270 2 -43 112 -5 -37 -44 -17 -32 -5 -33 rrcurveto
          hintmask 11001101
          20 callsubr
          44 23 40 26 27 112 2 17 35 47 280 rrcurveto
          -44 9 rmoveto
          -11 -67 -14 -83 -17 -58 rrcurveto
          -53 -16 -20 -25 -65 hhcurveto
          -64 -12 25 48 1 hvcurveto
          hintmask 00110001
          135 callgsubr
          endchar
        </CharString>
        <CharString name="Oogonekacute">
          -210 37 161 271 callsubr
          85 45 -25 44 9 44 77 44 0 44 hintmask 0110010010000000
          78 callsubr
          -45 -270 2 -43 112 -5 -37 -44 -17 -32 -5 -33 rrcurveto
          hintmask 1100001101000000
          20 callsubr
          44 23 40 26 27 112 2 17 35 47 280 rrcurveto
          -44 9 rmoveto
          -11 -67 -14 -83 -17 -58 rrcurveto
          -53 -16 -20 -25 -65 hhcurveto
          -64 -12 25 48 1 hvcurveto
          hintmask 0010010001000000
          135 callgsubr
          hintmask 0001100000000000
          53 456 -104 callsubr
        </CharString>
        <CharString name="Orogate">
          74 callgsubr
          145 9 79 -12 43 -10 39 -29 10 -50 2 21 126 rcurveline
          11 -9 9 -11 -10 -8 -7 -9 -2 vhcurveto
          -21 -130 -52 -2 -31 -10 -25 -39 rlinecurve
          -26 -43 -16 -79 -24 -144 -24 -145 -10 -79 12 -43 11 -39 28 -10 51 -2 -21 -126 264 callgsubr
          21 130 51 2 32 10 24 39 rlinecurve
          -100 callsubr
          endchar
        </CharString>
        <CharString name="Oslash">
          -66 -21 75 104 callgsubr
          75 -20 hstem
          85 38 206 38 vstem
          -58 callsubr
          endchar
        </CharString>
        <CharString name="Oslash.dup">
          -66 -21 75 104 callgsubr
          75 -20 hstem
          85 38 206 38 vstem
          -58 callsubr
          endchar
        </CharString>
        <CharString name="Oslashacute">
          -66 -21 75 104 callgsubr
          73 -21 23 -20 116 -20 hstemhm
          85 38 206 38 hintmask 11101011
          -58 callsubr
          hintmask 00010101
          47 464 -104 callsubr
        </CharString>
        <CharString name="Otilde">
          77 callsubr
          42 43 -23 43 -25 43 -23 43 93 callsubr
          hintmask 1100001100000000
          -96 callgsubr
          hintmask 1100001010000000
          -100 callsubr
          hintmask 0010010000000000
          95 432 -90 callsubr
        </CharString>
        <CharString name="P">
          14 callsubr
        </CharString>
        <CharString name="Phi">
          0 40 117 40 217 40 117 40 hstem
          179 44 -19 44 -19 44 cntrmask 00001110
          378 305 rmoveto
          12 70 -40 66 -77 13 19 117 rcurveline
          28 hlineto
          8 -53 callgsubr
          -8 hhcurveto
          -99 55 callgsubr
          27 hlineto
          -19 -117 -82 -12 -62 -68 -11 -68 rlinecurve
          -12 -71 41 -66 76 -12 -19 -117 rcurveline
          -27 hlineto
          -9 -19 -1 callgsubr
          99 -28 callgsubr
          -28 hlineto
          19 117 83 13 61 69 11 66 rlinecurve
          -192 -108 rmoveto
          -47 9 -29 46 9 53 10 58 47 42 46 9 rrcurveto
          111 -108 rmoveto
          -10 -59 -49 -41 -44 -9 36 217 rcurveline
          45 -9 31 -44 -9 -55 rrcurveto
          endchar
        </CharString>
        <CharString name="Pi">
          3 callgsubr
          hstem
          257 229 callsubr
          341 -30 callsubr
          -16 hlineto
          88 531 49 callsubr
          -271 hlineto
          -8 -19 0 -20 -3 hvcurveto
          -20 -4 19 0 8 hhcurveto
          16 hlineto
          67 callgsubr
          88 531 rlineto
          150 hlineto
          -88 -531 -10 callsubr
          endchar
        </CharString>
        <CharString name="Psi">
          3 callgsubr
          hstem
          160 229 callsubr
          406 460 rmoveto
          20 3 -17 0 -7 hhcurveto
          -46 -17 -76 -33 -5 hvcurveto
          -9 -51 -17 -96 -61 -24 62 371 rcurveline
          23 hlineto
          9 199 callsubr
          -90 -105 callgsubr
          23 hlineto
          -62 -371 -55 24 18 104 7 45 rlinecurve
          35 6 7 72 -45 hhcurveto
          -16 -8 -9 -11 -2 hvcurveto
          -2 -11 5 -5 5 -2 17 -6 -7 -40 -6 -35 -14 -83 8 -99 75 -21 -19 -118 rcurveline
          -23 -101 callsubr
          90 55 callsubr
          -23 hlineto
          19 118 75 18 44 84 20 110 rlinecurve
          3 20 8 46 18 5 5 3 8 4 2 12 rrcurveto
          endchar
        </CharString>
        <CharString name="Q">
          -122 -21 131 104 callgsubr
          hstemhm
          85 44 0 44 -44 45 11 45 -16 44 -23 44 43 45 hintmask 0011000010000000
          78 callsubr
          hintmask 0100100100000000
          -293 -49 13 -25 124 hhcurveto
          10 22 0 1 9 hvcurveto
          hintmask 1000000010000000
          21 -116 rlineto
          -16 4 5 0 16 hhcurveto
          10 13 0 9 2 hvcurveto
          -12 52 rlineto
          hintmask 0000000101000000
          -15 82 43 24 16 40 18 73 rlinecurve
          12 48 14 83 6 37 rrcurveto
          -45 1 rmoveto
          -38 -228 -15 -14 -20 -18 rrcurveto
          hintmask 0110011001000000
          -19 97 rlineto
          14 -3 -2 0 -14 hhcurveto
          -5 hlineto
          -12 -12 0 -14 3 hvcurveto
          23 -115 rlineto
          -34 hlineto
          -68 -3 36 48 1 129 callsubr
          endchar
        </CharString>
        <CharString name="R">
          -12 102 callsubr
          hstemhm
          62 45 43 141 callgsubr
          hintmask 1001010110000000
          -82 callgsubr
          hintmask 0110101000000000
          -72 callsubr
          hintmask 1011011010000000
          -52 callsubr
          endchar
        </CharString>
        <CharString name="Racute">
          -12 102 callsubr
          85 91 callsubr
          62 45 43 141 callgsubr
          hintmask 1001000101100000
          -82 callgsubr
          hintmask 0110001010000000
          -72 callsubr
          hintmask 1011000110100000
          -52 callsubr
          hintmask 0000110000000000
          37 322 -104 callsubr
        </CharString>
        <CharString name="Rcaron">
          -12 102 callsubr
          135 -20 hstemhm
          62 45 43 141 callgsubr
          hintmask 1001001011000000
          -82 callgsubr
          hintmask 0110010100000000
          -72 callsubr
          hintmask 1011001101000000
          -52 callsubr
          hintmask 0000100000000000
          54 281 -97 callsubr
        </CharString>
        <CharString name="Rcedilla">
          91 callgsubr
          45 102 callsubr
          hstemhm
          62 45 -24 69 -2 141 callgsubr
          hintmask 0010010010110000
          -82 callgsubr
          hintmask 0001101001000000
          -72 callsubr
          hintmask 0110110011010000
          -52 callsubr
          -143 -568 -66 callgsubr
          hintmask 1000000100000000
          -34 callsubr
          -1 -4 rcurveline
          -8 -2 9 -6 6 hhcurveto
          13 59 33 79 13 hvcurveto
          endchar
        </CharString>
        <CharString name="Rcommaaccent">
          91 callgsubr
          45 102 callsubr
          hstemhm
          62 45 -24 69 -2 141 callgsubr
          hintmask 0010010010110000
          -82 callgsubr
          hintmask 0001101001000000
          -72 callsubr
          hintmask 0010110011010000
          -52 callsubr
          hintmask 0100000010000000
          -143 -568 -66 callgsubr
          hintmask 1000000100000000
          -34 callsubr
          -1 -4 rcurveline
          -8 -2 9 -6 6 hhcurveto
          13 59 33 79 13 hvcurveto
          endchar
        </CharString>
        <CharString name="Rdblgrave">
          -12 102 callsubr
          86 203 callsubr
          62 45 43 141 callgsubr
          hintmask 1001000101100000
          -82 callgsubr
          hintmask 0110001010000000
          -72 callsubr
          hintmask 1011000110100000
          -52 callsubr
          hintmask 0000110000000000
          -83 251 rmoveto
          2 -94 callsubr
          9 -2 5 67 callsubr
          2 15 rrcurveto
          133 hmoveto
          2 -94 callsubr
          9 -2 5 67 callsubr
          2 15 rrcurveto
          endchar
        </CharString>
        <CharString name="Rdotaccent">
          -12 102 callsubr
          66 74 hstemhm
          62 45 43 45 52 44 -44 62 -48 45 17 44 hintmask 1001001001100000
          -82 callgsubr
          hintmask 0110010100000000
          -72 callsubr
          hintmask 1011001100100000
          -52 callsubr
          hintmask 0000100100000000
          -14 266 154 callgsubr
          15 -15 hhcurveto
          -15 -18 -15 154 callsubr
          -4 14 -15 15 hhcurveto
          hintmask 0000000010000000
          71 callsubr
          endchar
        </CharString>
        <CharString name="Rdotbelow">
          -206 73 121 102 callsubr
          hstemhm
          62 45 -7 62 -12 141 callgsubr
          hintmask 0100100101100000
          -82 callgsubr
          hintmask 0011010010000000
          -72 callsubr
          hintmask 0101100110100000
          -52 callsubr
          hintmask 1000001000000000
          -161 -618 -99 callgsubr
          endchar
        </CharString>
        <CharString name="Rdotbelowmacron">
          -206 73 121 102 callsubr
          74 41 hstemhm
          62 45 -7 62 -12 141 callgsubr
          hintmask 0100100010110000
          -82 callgsubr
          hintmask 0011001001000000
          -72 callsubr
          hintmask 1101100011010000
          -52 callsubr
          -161 -618 rmoveto
          -18 callsubr
          hintmask 1000000100000000
          -91 callgsubr
          hintmask 0000010000000000
          260 875 rmoveto
          21 4 -65 callsubr
          3 hvcurveto
          endchar
        </CharString>
        <CharString name="Rho">
          14 callsubr
        </CharString>
        <CharString name="S">
          77 callsubr
          hstem
          108 43 103 42 vstem
          -92 callgsubr
          endchar
        </CharString>
        <CharString name="Sacute">
          261 callgsubr
          108 43 103 42 hintmask 11001100
          -92 callgsubr
          hintmask 00110000
          30 611 -104 callsubr
        </CharString>
        <CharString name="Scaron">
          77 callsubr
          123 -20 hstemhm
          108 43 103 42 hintmask 11011000
          -92 callgsubr
          hintmask 00100000
          47 570 -97 callsubr
        </CharString>
        <CharString name="Scedilla">
          -226 40 174 104 callgsubr
          hstemhm
          108 43 -42 42 61 42 0 42 hintmask 00101010
          346 159 rmoveto
          8 50 -20 59 -2 3 -21 42 -12 5 -67 25 -46 17 rcurveline
          -28 17 -15 41 8 50 rrcurveto
          58 10 42 57 51 hhcurveto
          53 29 -42 -88 -5 hvcurveto
          -19 -2 0 -13 165 callsubr
          13 17 3 hvcurveto
          24 143 161 callsubr
          -15 -3 -8 -43 -16 hvcurveto
          44 -26 -39 7 -25 hhcurveto
          hintmask 01010010
          -72 -67 -72 -87 -15 hvcurveto
          -9 -56 18 -36 3 -6 22 -43 11 -4 70 -26 50 -17 11 -5 12 -29 10 -25 1 -29 -5 -33 rrcurveto
          -59 -10 -38 -68 -59 hhcurveto
          -61 -44 40 93 12 hvcurveto
          14 2 1 15 -20 hhcurveto
          -19 -6 -14 -17 -2 hvcurveto
          -24 -142 rlineto
          -13 -2 0 -16 16 hhcurveto
          14 3 8 43 16 hvcurveto
          23 -33 33 -12 27 -4 -7 -41 rcurveline
          -2 -15 2 -14 16 -2 rrcurveto
          hintmask 10001100
          29 -2 14 -22 -4 -28 rrcurveto
          -44 -8 -73 -8 -22 hhcurveto
          -14 hlineto
          -8 -20 -54 callgsubr
          18 hhcurveto
          53 90 0 92 16 hvcurveto
          6 40 -16 36 -43 13 6 35 rcurveline
          67 14 56 75 14 80 rrcurveto
          endchar
        </CharString>
        <CharString name="Scircumflex">
          202 callgsubr
          hstemhm
          108 43 103 42 hintmask 11011000
          -92 callgsubr
          hintmask 00100000
          40 524 -104 callgsubr
          endchar
        </CharString>
        <CharString name="Sdotbelow">
          188 callgsubr
          hstemhm
          108 43 -35 62 76 42 hintmask 01110100
          -92 callgsubr
          hintmask 10001000
          -168 -329 -99 callgsubr
          endchar
        </CharString>
        <CharString name="Sigma">
          0 42 529 40 hstem
          185 45 69 45 23 45 vstem
          333 33 rmoveto
          11 70 rlineto
          15 3 -1 17 -18 hhcurveto
          -19 -7 -16 -16 -3 hvcurveto
          -10 -61 rlineto
          -205 hlineto
          140 251 3 6 1 3 2 4 rlinecurve
          -59 265 rlineto
          206 hlineto
          -10 -61 243 callgsubr
          98 callsubr
          168 callgsubr
          -248 hlineto
          -8 -20 0 -20 -3 hvcurveto
          -1 -4 2 -2 1 -8 61 -272 rcurveline
          -151 -273 -5 -9 -2 0 -1 -4 rlinecurve
          -19 -3 21 0 7 hhcurveto
          248 hlineto
          19 10 82 callgsubr
          endchar
        </CharString>
        <CharString name="T">
          3 callgsubr
          hstem
          160 229 callsubr
          421 510 rmoveto
          40 callgsubr
          -268 hlineto
          -19 -10 -4 -29 -5 hvcurveto
          -11 -68 243 callgsubr
          10 61 rlineto
          95 hlineto
          -43 callsubr
          -10 -61 -3 callgsubr
          endchar
        </CharString>
        <CharString name="T_uni0303">
          96 callsubr
          98 45 -34 106 callsubr
          hintmask 0100001000000100
          421 510 rmoveto
          40 callgsubr
          -268 hlineto
          hintmask 0000000100000000
          -19 -10 -4 -29 -5 hvcurveto
          hintmask 0000001000000000
          -11 -68 rlineto
          hintmask 0000000010000000
          174 callgsubr
          hintmask 0000001000000000
          19 6 16 16 3 hvcurveto
          hintmask 0100000100100000
          215 callsubr
          hintmask 1100000001010100
          -43 callsubr
          hintmask 0000000000001000
          -10 -61 -3 callgsubr
          hintmask 0010010000000000
          -3 236 -90 callsubr
        </CharString>
        <CharString name="T_uni0308">
          233 callgsubr
          64 hstemhm
          98 45 -34 44 -38 45 0 44 -2 56 -54 44 0 44 33 56 -4 44 -34 45 hintmask 0101000000001000
          -18 callgsubr
          hintmask 0100100010000000
          215 callsubr
          hintmask 1100001001001000
          -43 callsubr
          hintmask 0000000000010000
          -10 -61 -3 callgsubr
          hintmask 0010000100100000
          -163 187 -73 callsubr
        </CharString>
        <CharString name="Tau">
          174 callsubr
          98 45 -34 106 callsubr
          hintmask 0110000001000000
          421 510 rmoveto
          40 callgsubr
          -268 hlineto
          hintmask 0001000000000000
          -19 -10 -4 -29 -5 hvcurveto
          hintmask 0010000000000000
          -11 -68 rlineto
          hintmask 0000100000000000
          174 callgsubr
          hintmask 0010000000000000
          19 6 16 16 3 hvcurveto
          hintmask 0101001000000000
          215 callsubr
          hintmask 1100010101000000
          -43 callsubr
          hintmask 0000000010000000
          -10 -61 -3 callgsubr
          endchar
        </CharString>
        <CharString name="Tcaron">
          227 callsubr
          98 45 -34 106 callsubr
          hintmask 0101000000100000
          -18 callgsubr
          hintmask 0100100100000000
          215 callsubr
          hintmask 1100001010100000
          -43 callsubr
          hintmask 0000000001000000
          -10 -61 -3 callgsubr
          hintmask 0010000000000000
          -28 219 -97 callsubr
        </CharString>
        <CharString name="Tcedilla">
          -217 41 176 65 callsubr
          hstemhm
          98 45 -34 44 -38 45 0 44 -4 44 -40 44 0 44 85 44 -34 45 hintmask 0011000000010000
          -18 callgsubr
          hintmask 0010100010000000
          215 callsubr
          hintmask 0100101000000000
          -8 callgsubr
          -34 hlineto
          -9 -19 -1 callgsubr
          34 hlineto
          -3 -1 -2 -3 271 callgsubr
          hintmask 1100000100000000
          112 callgsubr
          3 15 1 12 9 vvcurveto
          36 -28 callgsubr
          hintmask 0100000010000000
          -35 hlineto
          hintmask 0010000001010000
          118 callgsubr
          95 hlineto
          hintmask 0000000000100000
          -10 -61 -3 callgsubr
          endchar
        </CharString>
        <CharString name="Tdotbelow">
          70 callgsubr
          hstemhm
          98 45 -34 44 -38 45 -44 62 -18 89 callgsubr
          85 44 -34 45 hintmask 0011000000010000
          -18 callgsubr
          hintmask 0010100010000000
          215 callsubr
          hintmask 0110000101010000
          -43 callsubr
          hintmask 0000000000100000
          -10 -61 -3 callgsubr
          hintmask 1000100000000000
          -243 -680 rmoveto
          -18 callsubr
          hintmask 1000001000000000
          -91 callgsubr
          endchar
        </CharString>
        <CharString name="Theta">
          -12 40 254 47 254 40 hstemhm
          85 44 0 44 -20 44 -36 44 41 45 -37 45 23 45 cntrmask 1110000000000000
          hintmask 1111000000000000
          78 callsubr
          hintmask 1110100011000000
          -293 -49 13 -25 124 hhcurveto
          124 21 25 292 49 hvcurveto
          -45 1 rmoveto
          -11 -65 -13 -77 -15 -53 rrcurveto
          -60 -18 -19 -23 -66 hhcurveto
          -67 -11 24 60 2 129 callsubr
          -31 -24 rmoveto
          8 47 rlineto
          14 2 -1 18 -19 hhcurveto
          -17 -7 -16 -16 -3 hvcurveto
          hintmask 1110001000000000
          -49 hlineto
          16 3 -3 16 -17 hhcurveto
          -19 -6 -18 -14 -2 hvcurveto
          hintmask 1110010100000000
          -8 -47 rlineto
          -14 -2 0 -18 19 hhcurveto
          17 7 16 16 3 hvcurveto
          49 hlineto
          -16 -3 3 -16 17 hhcurveto
          19 7 18 14 2 hvcurveto
          endchar
        </CharString>
        <CharString name="Thorn">
          0 40 88 40 275 40 88 40 hstem
          368 305 rmoveto
          92 15 -37 86 -78 hhcurveto
          -87 hlineto
          14 88 -45 callgsubr
          77 -46 callsubr
          -16 hlineto
          14 88 228 callsubr
          -44 1 rmoveto
          -62 -10 -42 -76 -69 hhcurveto
          -75 hlineto
          46 275 rlineto
          75 hlineto
          71 14 -79 -58 -10 hvcurveto
          endchar
        </CharString>
        <CharString name="Tlinebelow">
          276 callgsubr
          98 45 -34 106 callsubr
          hintmask 0011000000100000
          -18 callgsubr
          hintmask 0010100100000000
          215 callsubr
          hintmask 0110001010100000
          -43 callsubr
          hintmask 0000000001000000
          -10 -61 -3 callgsubr
          hintmask 1000000000000000
          -144 -679 rmoveto
          21 3 -65 callsubr
          4 hvcurveto
          endchar
        </CharString>
        <CharString name="U">
          125 callsubr
          44 callgsubr
          hintmask 11101110
          -100 callgsubr
          hintmask 01010000
          -106 callsubr
          20 hlineto
          hintmask 11100110
          -76 callgsubr
          endchar
        </CharString>
        <CharString name="U_uni032F">
          -196 -21 54 42 109 169 callgsubr
          44 callgsubr
          hintmask 0011101110000000
          -100 callgsubr
          hintmask 0001010000000000
          -106 callsubr
          20 hlineto
          hintmask 0011100110000000
          -76 callgsubr
          hintmask 1100000000000000
          -187 -786 3 callsubr
        </CharString>
        <CharString name="Uacute">
          125 callsubr
          85 -21 119 116 callsubr
          hintmask 1100101110000000
          -100 callgsubr
          hintmask 0100010000000000
          -106 callsubr
          20 hlineto
          hintmask 1100100110000000
          -76 callgsubr
          hintmask 0011000000000000
          -73 179 -104 callsubr
        </CharString>
        <CharString name="Ubreve">
          125 callsubr
          64 42 54 116 callsubr
          hintmask 1100101110000000
          -100 callgsubr
          hintmask 0100010000000000
          -106 callsubr
          20 hlineto
          hintmask 1100100110000000
          -76 callgsubr
          hintmask 0011000000000000
          -29 158 -87 callgsubr
          endchar
        </CharString>
        <CharString name="Ucaron">
          125 callsubr
          135 116 callsubr
          hintmask 11010111
          -100 callgsubr
          hintmask 01001000
          -106 callsubr
          20 hlineto
          hintmask 11010011
          -76 callgsubr
          hintmask 00100000
          -56 138 -97 callsubr
        </CharString>
        <CharString name="Ucircumflex">
          125 callsubr
          76 -21 44 callgsubr
          hintmask 11010111
          -100 callgsubr
          hintmask 01001000
          -106 callsubr
          20 hlineto
          hintmask 11010011
          -76 callgsubr
          hintmask 00100010
          -63 92 -104 callgsubr
          endchar
        </CharString>
        <CharString name="Udblgrave">
          125 callsubr
          86 -21 121 116 callsubr
          hintmask 1100101110000000
          -100 callgsubr
          hintmask 0100010000000000
          -106 callsubr
          20 hlineto
          hintmask 1100100110000000
          -76 callgsubr
          hintmask 0011000000000000
          -174 108 rmoveto
          2 -94 callsubr
          9 -2 5 67 callsubr
          2 15 rrcurveto
          133 hmoveto
          2 -94 callsubr
          9 -2 5 67 callsubr
          2 15 rrcurveto
          endchar
        </CharString>
        <CharString name="Udieresis">
          260 callgsubr
          64 81 callsubr
          15 56 33 44 -10 56 -29 45 hintmask 1101010101000000
          -100 callgsubr
          hintmask 0100100000000000
          -106 callsubr
          20 hlineto
          hintmask 1101000101000000
          -76 callgsubr
          hintmask 0010001010000000
          -5 callgsubr
          endchar
        </CharString>
        <CharString name="Udieresisacute">
          -25 callgsubr
          15 190 -104 callsubr
        </CharString>
        <CharString name="Udieresiscaron">
          260 callgsubr
          64 134 217 callsubr
          hintmask 1100101010100000
          -100 callgsubr
          hintmask 0100010000000000
          -106 callsubr
          20 hlineto
          hintmask 1100100010100000
          -76 callgsubr
          hintmask 0011000101000000
          -5 callgsubr
          32 149 -97 callsubr
        </CharString>
        <CharString name="Udieresisgrave">
          -25 callgsubr
          3 122 -83 callsubr
        </CharString>
        <CharString name="Udotbelow">
          -206 73 121 169 callgsubr
          163 callsubr
          -27 62 -35 44 104 44 17 45 hintmask 0111001110000000
          -100 callgsubr
          hintmask 0010100000000000
          -106 callsubr
          20 hlineto
          hintmask 0111000110000000
          -76 callgsubr
          hintmask 1000010000000000
          -271 -761 -99 callgsubr
          endchar
        </CharString>
        <CharString name="Ugrave">
          125 callsubr
          85 -21 119 116 callsubr
          hintmask 1100101110000000
          -100 callgsubr
          hintmask 0100010000000000
          -106 callsubr
          20 hlineto
          hintmask 1100100110000000
          -76 callgsubr
          hintmask 0011000000000000
          -85 111 -83 callsubr
        </CharString>
        <CharString name="Uhookabove">
          125 callsubr
          87 -21 187 33 81 callsubr
          58 228 callgsubr
          -28 44 -33 34 -22 35 -4 34 -27 45 hintmask 110010100000100010000000
          -100 callgsubr
          hintmask 010001000000000000000000
          -106 callsubr
          20 hlineto
          hintmask 110010000000100010000000
          -76 callgsubr
          hintmask 000100010001000000000000
          -70 233 rmoveto
          -80 callsubr
          hintmask 000100000000001000000000
          52 callsubr
          hintmask 000000000000010100000000
          -37 callgsubr
          hintmask 000000000100000000000000
          51 callsubr
          hintmask 000000001000000000000000
          -4 -19 rlineto
          hintmask 001000000010000000000000
          79 callsubr
          hintmask 000000001000000000000000
          76 callgsubr
          hintmask 000000000100001000000000
          4 8 callsubr
          hintmask 000000000000000100000000
          8 callgsubr
        </CharString>
        <CharString name="Uhorn">
          125 callsubr
          93 -20 101 callgsubr
          hintmask 0110000001000000
          -32 callsubr
          hintmask 1001000110000000
          9 callsubr
          hintmask 0100010000000000
          61 370 rlineto
          hintmask 0100001000000000
          153 callsubr
          hintmask 0100100100000000
          36 callgsubr
          hintmask 1101001010100000
          -16 callgsubr
          endchar
        </CharString>
        <CharString name="Uhornacute">
          -20 callsubr
          hintmask 0010100000100000
          -102 118 -104 callsubr
        </CharString>
        <CharString name="Uhorndotbelow">
          -206 73 121 169 callgsubr
          93 -20 hstemhm
          81 44 -27 44 -26 62 -36 44 -14 44 -37 44 68 44 260 callsubr
          hintmask 0011000000010000
          -32 callsubr
          hintmask 0100100001100000
          9 callsubr
          hintmask 0010000100000000
          61 370 rlineto
          hintmask 0010000010000000
          153 callsubr
          hintmask 0010010001000000
          36 callgsubr
          hintmask 0110100010101000
          -16 callgsubr
          hintmask 1000001000000000
          -281 -822 -99 callgsubr
          endchar
        </CharString>
        <CharString name="Uhorngrave">
          -20 callsubr
          hintmask 0010100000000000
          -114 50 -83 callsubr
        </CharString>
        <CharString name="Uhornhookabove">
          125 callsubr
          87 -21 27 -20 180 33 hstemhm
          81 44 260 callsubr
          -14 44 -37 44 22 228 callgsubr
          -28 44 -33 34 -28 44 -38 35 -4 34 -27 44 hintmask 010100000000000001000000
          -32 callsubr
          hintmask 100001000100000100000000
          9 callsubr
          hintmask 010000010000000000000000
          61 370 rlineto
          hintmask 010000001000000000000000
          153 callsubr
          hintmask 010000100100000000000000
          36 callgsubr
          hintmask 110001001000000100001000
          -16 callgsubr
          hintmask 000010000010001000000000
          -80 172 rmoveto
          -80 callsubr
          hintmask 000010000000000000100000
          52 callsubr
          hintmask 000000000000000010010000
          -37 callgsubr
          hintmask 000000000000100000000000
          51 callsubr
          hintmask 000000000001000000000000
          -4 -19 rlineto
          hintmask 001000000000010000000000
          79 callsubr
          hintmask 000000000001000000000000
          76 callgsubr
          hintmask 000000000000100000100000
          4 8 callsubr
          hintmask 000000000000000000010000
          8 callgsubr
        </CharString>
        <CharString name="Uhorntilde">
          -12 40 543 40 54 43 -23 43 -25 43 -23 43 101 callgsubr
          hintmask 0100000000001000
          -32 callsubr
          hintmask 1000001000110000
          9 callsubr
          hintmask 0100000010000000
          61 370 rlineto
          hintmask 0100000001000000
          153 callsubr
          hintmask 0100000100100000
          36 callgsubr
          hintmask 1100001001010100
          -16 callgsubr
          hintmask 0010010000000000
          -60 94 -90 callsubr
        </CharString>
        <CharString name="Uhungarumlaut">
          125 callsubr
          86 -21 121 116 callsubr
          hintmask 1100101110000000
          -100 callgsubr
          hintmask 0100010000000000
          -106 callsubr
          20 hlineto
          hintmask 1100100110000000
          -76 callgsubr
          hintmask 0011000000000000
          -27 184 rmoveto
          -27 callsubr
          -133 hmoveto
          -27 callsubr
          endchar
        </CharString>
        <CharString name="Umacron">
          125 callsubr
          74 41 44 callgsubr
          hintmask 11010111
          -100 callgsubr
          hintmask 01001000
          -106 callsubr
          20 hlineto
          hintmask 11010011
          -76 callgsubr
          hintmask 00100100
          -27 114 rmoveto
          21 4 -65 callsubr
          3 hvcurveto
          endchar
        </CharString>
        <CharString name="Uogonek">
          -210 37 744 40 163 callsubr
          -4 41 -37 44 -34 45 -36 44 -44 45 -9 41 52 44 17 45 hintmask 0110100000110000
          449 69 callsubr
          -84 -84 callsubr
          -61 -365 rlineto
          -118 -19 -54 -60 -38 hhcurveto
          -39 -34 61 117 19 hvcurveto
          hintmask 0100010000000000
          61 365 rlineto
          hintmask 0100000010000000
          20 hlineto
          hintmask 0101000001000000
          -74 callgsubr
          -84 -105 callgsubr
          20 hlineto
          hintmask 0010000000000000
          -62 -371 -18 -109 29 -83 66 -19 rlinecurve
          hintmask 1001001000000000
          -36 -42 -18 -34 -5 -34 178 callsubr
          4 4 0 9 -4 5 rrcurveto
          hintmask 1000000100000000
          16 callsubr
          hintmask 0100100001110000
          -15 -12 192 callsubr
          8 45 24 43 27 27 61 16 58 83 18 109 62 371 rcurveline
          36 callsubr
          endchar
        </CharString>
        <CharString name="Upsilon">
          0 40 434 31 87 31 hstem
          105 45 10 44 9 44 111 44 vstem
          412 499 rmoveto
          54 9 -18 70 -48 hhcurveto
          -41 -35 -46 -103 -24 hvcurveto
          -1 hlineto
          106 8 -18 43 -41 hhcurveto
          -48 -42 -70 -54 -9 hvcurveto
          -20 -3 11 -3 10 hhcurveto
          5 18 0 26 5 hvcurveto
          24 4 13 66 32 hhcurveto
          32 0 -60 -27 -2 hvcurveto
          -1 -48 -7 -49 -8 -49 -53 -319 rcurveline
          -23 -101 callsubr
          90 55 callsubr
          -23 hlineto
          53 319 rlineto
          56 9 30 177 53 hhcurveto
          34 -13 -76 -14 -2 hvcurveto
          -16 -3 3 -10 18 hhcurveto
          9 14 2 21 3 hvcurveto
          endchar
        </CharString>
        <CharString name="Uring">
          125 callsubr
          12 22 80 22 81 callsubr
          47 27 30 44 -18 27 8 45 hintmask 1100101010100000
          -100 callgsubr
          hintmask 0100010000000000
          -106 callsubr
          20 hlineto
          hintmask 1100100010100000
          -76 callgsubr
          hintmask 0011000101000000
          -132 94 29 callgsubr
        </CharString>
        <CharString name="Utilde">
          -12 40 543 40 54 43 -23 43 -25 43 -23 43 44 callgsubr
          hintmask 1100001011100000
          -100 callgsubr
          hintmask 0100000100000000
          -106 callsubr
          20 hlineto
          hintmask 1100001001100000
          -76 callgsubr
          hintmask 0010010000000000
          -31 155 -90 callsubr
        </CharString>
        <CharString name="V">
          12 -21 580 40 hstem
          441 182 callsubr
          133 callsubr
          -65 hlineto
          -9 -20 -54 callgsubr
          22 hhcurveto
          -173 -521 1 521 rlineto
          21 19 -64 callsubr
          -66 hlineto
          134 callsubr
          -3 hvcurveto
          -20 -4 18 0 19 hhcurveto
          3 -544 rlineto
          -36 14 0 16 15 14 0 34 12 vhcurveto
          186 546 rlineto
          19 18 0 20 4 hvcurveto
          endchar
        </CharString>
        <CharString name="W">
          200 callgsubr
          hstem
          -79 callgsubr
          endchar
        </CharString>
        <CharString name="Wacute">
          200 callgsubr
          85 91 callsubr
          hintmask 11100000
          -79 callgsubr
          hintmask 00011000
          -70 179 -104 callsubr
        </CharString>
        <CharString name="Wcircumflex">
          200 callgsubr
          76 -21 hstemhm
          hintmask 11100000
          -79 callgsubr
          hintmask 00010000
          -60 92 -104 callgsubr
          endchar
        </CharString>
        <CharString name="Wdieresis">
          200 callgsubr
          54 64 hstemhm
          202 56 67 56 hintmask 11100000
          -79 callgsubr
          hintmask 00011100
          -188 81 callgsubr
        </CharString>
        <CharString name="Wgrave">
          200 callgsubr
          85 91 callsubr
          hintmask 11100000
          -79 callgsubr
          hintmask 00011000
          -82 111 -83 callsubr
        </CharString>
        <CharString name="X">
          -3 callsubr
        </CharString>
        <CharString name="Xi">
          0 38 261 38 236 38 hstemhm
          23 45 48 45 -41 45 -38 44 114 45 -36 44 -1 44 0 44 hintmask 1011100010100000
          423 564 rmoveto
          2 14 45 callsubr
          -254 hlineto
          -19 -10 -4 -29 -5 hvcurveto
          -2 -14 rlineto
          -16 -3 2 -16 19 hhcurveto
          18 7 18 23 4 hvcurveto
          220 hlineto
          -23 -4 0 -18 19 hhcurveto
          19 5 16 16 3 hvcurveto
          -85 -531 rmoveto
          3 19 rlineto
          15 2 0 18 -19 hhcurveto
          -19 -5 -16 -31 -6 hvcurveto
          -226 hlineto
          31 6 -1 16 -20 hhcurveto
          -18 -7 -18 -15 -2 hvcurveto
          -3 -19 rlineto
          -29 -5 8 -4 20 hhcurveto
          259 51 callgsubr
          -8 264 rmoveto
          hintmask 0100001001000000
          7 43 rlineto
          15 2 -1 18 -19 hhcurveto
          -18 -7 -19 -17 -3 hvcurveto
          -120 hlineto
          17 3 -1 19 -18 hhcurveto
          -19 -7 -18 -15 -2 hvcurveto
          hintmask 0100010100000000
          -7 -43 rlineto
          -16 -3 1 -17 19 hhcurveto
          18 7 19 16 3 hvcurveto
          120 hlineto
          -16 -3 1 -19 18 hhcurveto
          19 7 17 16 3 hvcurveto
          endchar
        </CharString>
        <CharString name="Y">
          0 40 531 40 250 callgsubr
          113 44 hintmask 01100100
          -41 callsubr
          hintmask 01010000
          -9 callsubr
          -66 -105 callgsubr
          12 hlineto
          hintmask 00001000
          52 -321 rlineto
          hintmask 10010000
          -35 -210 rlineto
          hintmask 10100000
          -28 callsubr
          hintmask 10010000
          -16 hlineto
          hintmask 01001100
          35 callgsubr
          endchar
        </CharString>
        <CharString name="Yacute">
          0 callgsubr
          -65 179 -104 callsubr
        </CharString>
        <CharString name="Ycircumflex">
          3 callgsubr
          76 -21 250 callgsubr
          113 44 hintmask 01010010
          -41 callsubr
          hintmask 01001000
          -9 callsubr
          -66 -105 callgsubr
          12 hlineto
          hintmask 00000100
          52 -321 rlineto
          hintmask 10001000
          -35 -210 rlineto
          hintmask 10010000
          -28 callsubr
          hintmask 10001000
          -16 hlineto
          hintmask 01000110
          35 callgsubr
          hintmask 00101000
          -55 92 -104 callgsubr
          endchar
        </CharString>
        <CharString name="Ydieresis">
          233 callgsubr
          64 250 callgsubr
          -37 56 67 56 -29 44 hintmask 0101000010000000
          -41 callsubr
          hintmask 0100100000000000
          -9 callsubr
          -66 -105 callgsubr
          12 hlineto
          hintmask 0000010000000000
          52 -321 rlineto
          hintmask 1000100000000000
          -35 -210 rlineto
          hintmask 1001000000000000
          -28 callsubr
          hintmask 1000100000000000
          -16 hlineto
          hintmask 0100010010000000
          35 callgsubr
          hintmask 0010001100000000
          -183 81 callgsubr
        </CharString>
        <CharString name="Ydotbelow">
          70 callgsubr
          276 callsubr
          -34 214 callsubr
          113 44 hintmask 00101001
          -41 callsubr
          hintmask 00100100
          -9 callsubr
          -66 -105 callgsubr
          12 hlineto
          hintmask 00000010
          52 -321 rlineto
          hintmask 01000100
          -35 -210 rlineto
          hintmask 01001000
          -28 callsubr
          hintmask 01000100
          -16 hlineto
          hintmask 00100011
          35 callgsubr
          hintmask 10010000
          -263 -761 -99 callgsubr
          endchar
        </CharString>
        <CharString name="Ygrave">
          0 callgsubr
          -77 111 -83 callsubr
        </CharString>
        <CharString name="Yhookabove">
          3 callgsubr
          87 -21 187 33 250 callgsubr
          6 12 callsubr
          -4 34 -27 44 hintmask 0100100000010001
          -41 callsubr
          hintmask 0100010000000000
          -9 callsubr
          -66 -105 callgsubr
          12 hlineto
          hintmask 0000001000000000
          52 -321 rlineto
          hintmask 1000010000000000
          -35 -210 rlineto
          hintmask 1000100000000000
          -28 callsubr
          hintmask 1000010000000000
          -16 hlineto
          hintmask 0100001000000001
          35 callgsubr
          hintmask 0001000100010000
          -62 233 17 callsubr
        </CharString>
        <CharString name="Ytilde">
          96 callsubr
          144 44 -28 44 -9 44 113 44 hintmask 0100001001000000
          -41 callsubr
          hintmask 0100000100000000
          -9 callsubr
          -66 -105 callgsubr
          12 hlineto
          hintmask 0000000010000000
          52 -321 rlineto
          hintmask 1000000100000000
          -35 -210 rlineto
          hintmask 1000001000000000
          -28 callsubr
          hintmask 1000000100000000
          -16 hlineto
          hintmask 0100000011000000
          35 callgsubr
          hintmask 0010010000000000
          -23 155 -90 callsubr
        </CharString>
        <CharString name="Z">
          3 callgsubr
          hstem
          207 callsubr
          vstem
          -77 callsubr
          endchar
        </CharString>
        <CharString name="Zacute">
          107 callsubr
          207 callsubr
          hintmask 11001110
          -77 callsubr
          hintmask 00110000
          45 737 -104 callsubr
        </CharString>
        <CharString name="Zcaron">
          227 callsubr
          207 callsubr
          hintmask 11011100
          -77 callsubr
          hintmask 00101000
          62 696 -97 callsubr
        </CharString>
        <CharString name="Zdotaccent">
          3 callgsubr
          66 74 hstemhm
          121 44 98 62 -24 44 22 44 hintmask 11010110
          -77 callsubr
          hintmask 00101000
          -6 681 -71 callsubr
        </CharString>
        <CharString name="Zdotbelow">
          70 callgsubr
          276 callsubr
          -57 44 136 44 22 44 hintmask 01101110
          -77 callsubr
          hintmask 10010000
          -153 -203 -99 callgsubr
          endchar
        </CharString>
        <CharString name="Zeta">
          3 callgsubr
          hstem
          207 callsubr
          vstem
          -77 callsubr
          endchar
        </CharString>
        <CharString name="a">
          52 callgsubr
          hstemhm
          -107 callsubr
          endchar
        </CharString>
        <CharString name="aacute">
          52 callgsubr
          90 91 callsubr
          -107 callsubr
          hintmask 00011000
          80 374 rmoveto
          14 2 -7 -76 callsubr
          -88 -58 -8 -5 -12 -101 callgsubr
          11 166 callsubr
          endchar
        </CharString>
        <CharString name="abreve">
          52 callgsubr
          81 270 callgsubr
          -107 callsubr
          hintmask 00011000
          125 365 211 callsubr
          -36 callsubr
          -21 -6 -25 -6 -68 callgsubr
          endchar
        </CharString>
        <CharString name="abreveacute">
          52 callgsubr
          81 42 32 42 6 42 71 -20 hstemhm
          -107 callsubr
          hintmask 00011110
          125 365 211 callsubr
          4 -7 hhcurveto
          -17 -5 -21 -6 -2 hvcurveto
          -22 -6 -25 -5 -68 callgsubr
          -24 137 -104 callsubr
        </CharString>
        <CharString name="abrevedotbelow">
          -206 73 127 74 callsubr
          81 42 54 -20 -39 callgsubr
          hintmask 01001100
          -28 -18 -35 0 0 vvcurveto
          -45 -21 40 45 8 hvcurveto
          63 10 81 43 88 hhcurveto
          125 365 211 callsubr
          -36 callsubr
          -21 -6 -25 -6 -68 callgsubr
          hintmask 10000010
          -215 -760 -99 callgsubr
          endchar
        </CharString>
        <CharString name="abrevegrave">
          52 callgsubr
          81 42 32 42 6 42 hstemhm
          -107 callsubr
          hintmask 00011100
          125 365 211 callsubr
          4 -7 hhcurveto
          -17 -5 -21 -6 -2 hvcurveto
          -22 -6 -25 -5 -68 callgsubr
          -35 69 26 callgsubr
          3 10 79 callgsubr
          68 -58 7 -5 9 -14 callsubr
          endchar
        </CharString>
        <CharString name="abrevehookabove">
          52 callgsubr
          81 42 241 33 hstemhm
          235 190 callgsubr
          34 -27 35 -30 36 -6 36 -4 34 hintmask 0110000000000000
          13 callgsubr
          hintmask 1000000001000000
          -28 -18 -35 0 0 vvcurveto
          -45 -21 40 45 8 hvcurveto
          63 10 81 43 88 hhcurveto
          hintmask 0001000001000000
          125 365 211 callsubr
          -41 callgsubr
          -4 hvcurveto
          hintmask 0001000010000000
          218 callsubr
          hintmask 0000110000100000
          156 callgsubr
          hintmask 0000100001001000
          208 callsubr
          170 callsubr
          -4 hvcurveto
          -2 -7 -1 -9 -7 -5 rrcurveto
          hintmask 0000000100000000
          -30 -22 -28 -28 -7 -41 rrcurveto
          hintmask 0000001000000000
          -3 -19 rlineto
          64 callsubr
          hintmask 0000000100010000
          131 callgsubr
          hintmask 0000000000001000
          12 11 14 239 callgsubr
        </CharString>
        <CharString name="abrevetilde">
          52 callgsubr
          81 275 callgsubr
          -107 callsubr
          hintmask 00011001
          125 365 211 callsubr
          4 -7 hhcurveto
          -17 -5 -21 -6 -2 hvcurveto
          -22 -6 -25 -5 -68 callgsubr
          24 143 -87 callsubr
          hintmask 00000010
          60 callgsubr
          hintmask 00000100
          19 callsubr
          hintmask 00001001
          -62 callgsubr
          hintmask 00000100
          24 27 247 callgsubr
          5 7 4 vvcurveto
          endchar
        </CharString>
        <CharString name="acaron">
          52 callgsubr
          185 -20 -46 callgsubr
          107 375 -90 callgsubr
        </CharString>
        <CharString name="acircumflex">
          226 callsubr
          -46 callgsubr
          95 302 -94 callgsubr
          endchar
        </CharString>
        <CharString name="acircumflexacute">
          226 callsubr
          219 -20 hstemhm
          -107 callsubr
          hintmask 00011000
          91 299 -85 callsubr
          6 178 rmoveto
          14 2 -7 -76 callsubr
          -88 -58 -8 -5 -12 -93 callsubr
        </CharString>
        <CharString name="acircumflexdotbelow">
          -206 73 127 74 callsubr
          93 -21 -39 callgsubr
          hintmask 01001000
          -28 -18 -35 0 0 vvcurveto
          -45 -21 40 45 8 hvcurveto
          63 10 81 43 88 hhcurveto
          95 302 -94 callgsubr
          hintmask 10000100
          -185 -697 -99 callgsubr
          endchar
        </CharString>
        <CharString name="acircumflexgrave">
          226 callsubr
          -46 callgsubr
          91 299 -85 callsubr
          -5 110 26 callgsubr
          2 11 79 callgsubr
          68 -58 6 -5 10 -14 callsubr
          endchar
        </CharString>
        <CharString name="acircumflexhookabove">
          52 callgsubr
          75 142 callgsubr
          286 34 -22 35 -13 179 callgsubr
          hintmask 0110000000100000
          13 callgsubr
          hintmask 1000000000000000
          -28 -18 -35 0 0 vvcurveto
          -45 -21 40 45 8 hvcurveto
          63 10 81 43 88 hhcurveto
          hintmask 0001001000001000
          91 299 -12 callsubr
        </CharString>
        <CharString name="acircumflextilde">
          -6 40 -34 40 354 41 93 198 callsubr
          -107 callsubr
          hintmask 00011001
          91 299 -85 callsubr
          54 184 rmoveto
          12 2 -10 8 -9 hhcurveto
          -4 -4 -2 -4 -5 hvcurveto
          -8 -7 60 callsubr
          5 9 70 callsubr
          hintmask 00000010
          88 callsubr
          hintmask 00000100
          19 callsubr
          hintmask 00001001
          -62 callgsubr
          hintmask 00000100
          24 27 247 callgsubr
          4 7 1 4 rrcurveto
          endchar
        </CharString>
        <CharString name="acute">
          525 110 callgsubr
          hstem
          348 599 rmoveto
          14 2 -7 -76 callsubr
          -88 -58 -8 -5 -12 -101 callgsubr
          11 166 callsubr
          endchar
        </CharString>
        <CharString name="acute.cap">
          515 110 callgsubr
          hstem
          346 589 -104 callsubr
        </CharString>
        <CharString name="acute.dup">
          525 110 callgsubr
          hstem
          348 599 rmoveto
          14 2 -7 -76 callsubr
          -88 -58 -8 -5 -12 -101 callgsubr
          11 166 callsubr
          endchar
        </CharString>
        <CharString name="acute.ts1">
          513 110 callgsubr
          hstem
          372 587 rmoveto
          14 2 -7 -76 callsubr
          -88 -58 -8 -5 -12 -101 callgsubr
          11 166 callsubr
          endchar
        </CharString>
        <CharString name="adblgrave">
          52 callgsubr
          89 203 callsubr
          -107 callsubr
          hintmask 00011000
          -21 301 rmoveto
          1 -94 callsubr
          10 -2 4 67 callsubr
          3 15 rrcurveto
          133 hmoveto
          1 -94 callsubr
          10 -2 4 67 callsubr
          3 15 rrcurveto
          endchar
        </CharString>
        <CharString name="adieresis">
          52 callgsubr
          97 64 132 callgsubr
          -107 callsubr
          hintmask 00011100
          -23 338 -50 callsubr
        </CharString>
        <CharString name="adotbelow">
          -206 73 127 74 callsubr
          -39 callgsubr
          hintmask 01000000
          -28 -18 -35 0 0 vvcurveto
          -45 -21 40 45 8 hvcurveto
          63 10 81 43 88 hhcurveto
          hintmask 10001000
          -90 -395 -99 callgsubr
          endchar
        </CharString>
        <CharString name="ae">
          -65 callgsubr
          endchar
        </CharString>
        <CharString name="ae.dup">
          -65 callgsubr
          endchar
        </CharString>
        <CharString name="aeacute">
          -65 callgsubr
          hintmask 11100000
          159 404 rmoveto
          14 2 -7 -76 callsubr
          -88 -58 -8 -5 -12 -101 callgsubr
          11 166 callsubr
          endchar
        </CharString>
        <CharString name="agrave">
          52 callgsubr
          90 91 callsubr
          -107 callsubr
          hintmask 00011000
          68 306 -69 callgsubr
        </CharString>
        <CharString name="ahookabove">
          52 callgsubr
          40 143 callgsubr
          208 12 callsubr
          -4 34 hintmask 0110000001000000
          348 -30 callsubr
          -18 -14 2 7 -10 hvcurveto
          39 234 rlineto
          76 13 -30 76 -91 hhcurveto
          -28 -69 0 -62 -11 hvcurveto
          -23 -4 14 -10 13 hhcurveto
          4 23 0 38 7 hvcurveto
          1 4 1 9 17 2 rrcurveto
          1 8 10 -78 callsubr
          hintmask 1000001000000000
          16 24 0 -26 18 hvcurveto
          22 -29 -6 -35 -7 -43 -43 -2 -41 -4 -47 -21 -36 -16 -52 -33 -11 -66 rrcurveto
          -70 -12 38 -55 62 hhcurveto
          23 44 5 37 43 hvcurveto
          hintmask 0100000000010000
          -34 8 35 -2 27 hhcurveto
          14 73 callgsubr
          -97 106 rmoveto
          -4 -26 -5 -28 -32 -20 rrcurveto
          hintmask 1000000000000000
          -28 -18 -35 0 0 vvcurveto
          -45 -21 40 45 8 hvcurveto
          63 10 81 43 88 hhcurveto
          hintmask 0000110001000000
          74 376 -55 callgsubr
        </CharString>
        <CharString name="amacron">
          52 callgsubr
          108 41 -46 callgsubr
          131 338 -37 callsubr
        </CharString>
        <CharString name="ampersand">
          -12 40 31 40 286 40 158 40 hstem
          194 41 7 41 7 41 cntrmask 00001110
          400 405 28 callgsubr
          -61 hlineto
          -8 -20 0 -20 -3 hvcurveto
          -20 -4 20 0 13 hhcurveto
          -50 -121 -31 -74 -25 -46 -22 92 -2 22 -5 44 49 65 46 61 11 66 rrcurveto
          59 10 -6 70 -45 hhcurveto
          -35 -45 -45 -92 -15 hvcurveto
          -8 -46 -3 -57 4 -74 -59 -78 rcurveline
          -17 -22 -19 -30 -9 -51 rrcurveto
          -71 -11 21 -69 50 hhcurveto
          39 37 39 32 22 hvcurveto
          -40 15 23 -31 31 hhcurveto
          43 32 65 46 8 hvcurveto
          4 24 -19 0 0 vvcurveto
          -3 -15 0 -29 -7 hvcurveto
          -31 -6 -12 -35 -19 hhcurveto
          -28 -18 68 13 2 hvcurveto
          0 38 73 27 61 vhcurveto
          59 142 160 callgsubr
          -155 89 rmoveto
          -4 -26 -9 -37 -57 -75 rrcurveto
          -1 65 11 64 0 vvcurveto
          64 11 20 34 19 hhcurveto
          27 -17 -89 0 hvcurveto
          -64 -395 rmoveto
          -39 -26 -27 -32 -24 hhcurveto
          -35 4 72 32 5 hvcurveto
          9 56 17 20 42 52 12 -81 18 -63 5 -17 rrcurveto
          endchar
        </CharString>
        <CharString name="anglearc">
          109 -21 436 -20 hstemhm
          286 44 -42 44 hintmask 00010000
          348 111 rmoveto
          1 10 -6 6 -4 4 -51 42 rcurveline
          hintmask 00100000
          23 54 12 39 7 40 rrcurveto
          hintmask 01010000
          7 40 0 39 -5 54 65 42 rcurveline
          6 4 8 6 2 10 rrcurveto
          15 2 -11 8 -10 hhcurveto
          -4 -3 -1 -2 -3 hvcurveto
          -60 -40 -10 31 rlineto
          7 -2 -7 5 -7 hhcurveto
          -10 -13 -8 -15 -2 hvcurveto
          -1 -3 2 -4 2 -4 rrcurveto
          hintmask 10100000
          10 -33 -199 -131 -6 -4 -7 -6 -2 -10 rlinecurve
          -2 -10 5 -6 6 -4 155 -131 rcurveline
          -22 -33 rlineto
          -2 -4 -4 -4 -3 vvcurveto
          -15 -3 11 -8 10 hhcurveto
          7 8 5 7 5 hvcurveto
          20 31 46 -40 rlineto
          -2 3 3 -1 4 hhcurveto
          10 13 8 15 3 hvcurveto
          -62 195 rmoveto
          -6 -36 -10 -37 -14 -33 -126 106 rcurveline
          162 106 2 -33 -2 -37 -6 -36 rlinecurve
          endchar
        </CharString>
        <CharString name="angleleft">
          -64 -21 783 -20 hstem
          293 -60 rmoveto
          -97 367 rlineto
          1 7 218 360 0 vvcurveto
          15 3 -2 9 -19 hhcurveto
          -10 -11 -15 -7 -4 hvcurveto
          -225 -370 96 -350 rlineto
          -17 6 6 -24 12 hhcurveto
          10 14 11 14 2 hvcurveto
          endchar
        </CharString>
        <CharString name="angleright">
          -64 -21 783 -20 hstem
          304 306 rmoveto
          -101 370 rlineto
          7 -2 -7 15 -10 hhcurveto
          -19 -4 -9 -15 -3 hvcurveto
          0 98 -360 -1 -7 vhcurveto
          -219 -367 rlineto
          -14 -2 10 -11 10 hhcurveto
          12 14 24 17 12 hvcurveto
          endchar
        </CharString>
        <CharString name="aogonek">
          -210 37 167 74 callsubr
          -19 callgsubr
          endchar
        </CharString>
        <CharString name="aogonekacute">
          -210 37 167 74 callsubr
          90 -21 119 -20 -19 callgsubr
          hintmask 00001100
          80 374 rmoveto
          14 2 -7 -76 callsubr
          -88 -58 -8 -5 -12 -101 callgsubr
          11 166 callsubr
          endchar
        </CharString>
        <CharString name="aring">
          52 callgsubr
          57 22 80 22 hstemhm
          212 27 56 27 -107 callsubr
          hintmask 00011110
          27 329 29 callsubr
        </CharString>
        <CharString name="aringacute">
          52 callgsubr
          57 22 80 22 137 -20 hstemhm
          212 27 56 27 -107 callsubr
          hintmask 00011111
          27 329 -38 callgsubr
          48 175 11 callgsubr
        </CharString>
        <CharString name="asciicircum">
          525 -21 hstem
          393 526 rmoveto
          1 5 -4 9 -6 5 -92 73 rcurveline
          -9 7 -19 -7 0 vvcurveto
          -116 -73 -8 -5 -6 -9 -1 -5 rlinecurve
          -8 -2 3 -14 11 hhcurveto
          5 4 1 6 10 hvcurveto
          106 60 86 -60 rlineto
          -6 8 4 -1 5 hhcurveto
          11 7 14 8 2 hvcurveto
          endchar
        </CharString>
        <CharString name="asciitilde">
          255 27 callsubr
          hintmask 10010000
          350 336 -59 callgsubr
          hintmask 00100000
          -24 -27 258 callgsubr
          97 callgsubr
          hintmask 10010000
          -57 callsubr
          hintmask 01000000
          24 27 189 callsubr
          59 callgsubr
        </CharString>
        <CharString name="asciitilde.low">
          0 27 callsubr
          hintmask 10010000
          308 81 114 callgsubr
          6 8 206 callgsubr
          hintmask 00100000
          -24 -28 258 callgsubr
          97 callgsubr
          hintmask 10010000
          -80 callgsubr
          39 234 callgsubr
          -5 -9 3 hvcurveto
          -32 14 11 -12 19 hhcurveto
          hintmask 01000000
          24 28 189 callsubr
          59 callgsubr
        </CharString>
        <CharString name="asterisk">
          -4 callsubr
        </CharString>
        <CharString name="asterisk.math">
          -4 callsubr
        </CharString>
        <CharString name="at">
          -6 40 76 41 309 41 76 40 hstemhm
          76 38 62 39 -11 39 -32 39 hintmask 10111001
          337 72 rmoveto
          17 3 -19 0 -6 hhcurveto
          -10 -3 0 -10 -9 hvcurveto
          -34 -29 -28 -11 -25 hhcurveto
          -77 -46 118 153 26 hvcurveto
          159 26 87 113 73 hhcurveto
          21 27 -11 -94 8 hvcurveto
          16 -14 -14 13 -19 hhcurveto
          hintmask 00000100
          -53 -61 -84 -111 -19 hvcurveto
          hintmask 11011010
          -117 -19 36 -79 50 hhcurveto
          33 74 42 169 29 hvcurveto
          68 11 35 228 -118 hhcurveto
          -91 -110 -129 -182 -30 hvcurveto
          -181 -30 64 -131 94 hhcurveto
          63 66 54 24 4 hvcurveto
          234 vmoveto
          hintmask 01000001
          -92 -15 -41 -63 -31 hhcurveto
          hintmask 00100100
          -34 -15 69 85 14 hvcurveto
          92 15 41 63 31 hhcurveto
          34 15 -69 -85 -14 hvcurveto
          endchar
        </CharString>
        <CharString name="atilde">
          52 callgsubr
          78 27 callsubr
          -107 callsubr
          hintmask 00010010
          125 369 -59 callgsubr
          hintmask 00000100
          88 callsubr
          hintmask 00001000
          97 callgsubr
          hintmask 00010010
          -57 callsubr
          hintmask 00001000
          5 callsubr
          hintmask 00000100
          59 callgsubr
        </CharString>
        <CharString name="b">
          -6 248 callgsubr
          320 45 vstem
          92 callgsubr
          33 203 rlineto
          -15 callsubr
          -89 -538 rlineto
          -16 -3 1 -17 99 callgsubr
          35 6 hvcurveto
          41 callsubr
          128 callgsubr
        </CharString>
        <CharString name="backslash">
          215 callgsubr
          hstem
          305 -61 rmoveto
          4 -1 1 -1 3 vhcurveto
          -111 720 rlineto
          18 -3 -2 12 -14 hhcurveto
          -9 -14 -7 -18 -3 hvcurveto
          -1 -4 2 -1 1 -3 110 -722 rcurveline
          -10 2 3 -18 15 hhcurveto
          8 15 7 18 3 hvcurveto
          endchar
        </CharString>
</ttFont>
